<svg width="173" height="62" viewBox="0 0 173 62" fill="none" xmlns="http://www.w3.org/2000/svg">
<g filter="url(#filter0_d_2_4)">
<path d="M19.0625 41.1875C18.7031 41.0625 17.9375 41 16.7656 41H7.20312C6.39062 41 5.74219 40.875 5.25781 40.625C4.77344 40.3594 4.53125 39.8828 4.53125 39.1953C4.53125 38.6953 4.64844 38.2969 4.88281 38C5.47656 38.1562 6.04688 38.2344 6.59375 38.2344C7.14062 38.2344 7.57031 38.1797 7.88281 38.0703C8.19531 37.9453 8.46875 37.7344 8.70312 37.4375C9.17188 36.8125 9.40625 35.7734 9.40625 34.3203V10.3438C9.35938 9.25 9 8.55469 8.32812 8.25781C8.125 8.16406 7.84375 8.07812 7.48438 8C7.14062 7.92188 6.79688 7.84375 6.45312 7.76562C6.125 7.67188 5.84375 7.5625 5.60938 7.4375C5.14062 7.1875 4.90625 6.85937 4.90625 6.45312C4.90625 5.71875 5.03125 5.19531 5.28125 4.88281C5.64062 5.00781 6.41406 5.07031 7.60156 5.07031H10.6484L18.875 4.83594L19.8828 4.8125C24.6953 4.8125 28.2969 5.67188 30.6875 7.39062C33.0781 9.09375 34.2734 11.5 34.2734 14.6094C34.2734 16.9375 33.5156 19.0781 32 21.0312C30.3125 23.2031 27.9844 24.6719 25.0156 25.4375C25.8281 26 26.75 27.0312 27.7812 28.5312L30.2656 32.1641C32.5938 35.5547 34.5234 37.25 36.0547 37.25C36.6328 37.25 37.0703 37.1953 37.3672 37.0859L37.9531 36.8516C38.0781 36.8047 38.2188 36.7812 38.375 36.7812C38.5312 36.7812 38.6953 36.9062 38.8672 37.1562C39.0391 37.3906 39.125 37.6641 39.125 37.9766C39.125 38.2891 38.9922 38.6641 38.7266 39.1016C38.4609 39.5234 38.0859 39.9062 37.6016 40.25C36.5078 41.0469 35.3125 41.4453 34.0156 41.4453C32.7188 41.4453 31.6484 41.2266 30.8047 40.7891C29.9766 40.3516 29.2109 39.7812 28.5078 39.0781C27.8203 38.3594 27.1875 37.5469 26.6094 36.6406C26.0469 35.7344 25.5156 34.8047 25.0156 33.8516L23.6328 31.0625C22.6484 29.0312 21.8594 27.7266 21.2656 27.1484C20.6875 26.5547 20.1562 26.2578 19.6719 26.2578H17.3047C16.9141 26.2578 16.7188 25.9766 16.7188 25.4141C16.7188 24.6328 17.0156 24.0234 17.6094 23.5859C17.8125 23.4453 18.4219 23.3672 19.4375 23.3516C20.4531 23.3203 21.5938 23.1016 22.8594 22.6953C24.1406 22.2891 25.1953 21.7344 26.0234 21.0312C27.6328 19.6406 28.4375 17.6875 28.4375 15.1719C28.4375 13.0625 27.7344 11.3359 26.3281 9.99219C24.7344 8.47656 22.5156 7.70312 19.6719 7.67188C17.7969 7.67188 16.5469 7.95312 15.9219 8.51562C15.2969 9.04688 14.9688 10.0547 14.9375 11.5391V35.4688C14.9375 36.7031 15.2812 37.4844 15.9688 37.8125C16.1875 37.9062 16.4766 37.9922 16.8359 38.0703C17.1953 38.1484 17.5391 38.2344 17.8672 38.3281C18.2109 38.4062 18.5 38.5078 18.7344 38.6328C19.2031 38.8828 19.4375 39.2188 19.4375 39.6406C19.4375 40.3594 19.3125 40.875 19.0625 41.1875ZM41.7031 28.3906C41.7031 26.5 41.8984 24.8203 42.2891 23.3516C42.6797 21.8828 43.2031 20.5703 43.8594 19.4141C44.5312 18.2422 45.3125 17.2188 46.2031 16.3438C47.1094 15.4688 48.0781 14.7422 49.1094 14.1641C51.1406 13.0078 53.1406 12.4297 55.1094 12.4297C57.0781 12.4297 58.6562 12.7812 59.8438 13.4844C61.0312 14.1719 62 15.0938 62.75 16.25C64.1406 18.4531 64.8359 21.3828 64.8359 25.0391C64.8359 26.3984 64.2656 27.0938 63.125 27.125L46.7656 27.4766C46.8594 30.8672 47.7344 33.375 49.3906 35C50.7969 36.375 52.6172 37.0625 54.8516 37.0625C58.1797 37.0625 60.8828 36.3672 62.9609 34.9766C63.1016 34.9766 63.2734 35.0938 63.4766 35.3281C63.8672 35.7969 64.0625 36.2031 64.0625 36.5469C64.0625 37.2969 63.125 38.2578 61.25 39.4297C59.0938 40.7734 56.5781 41.4453 53.7031 41.4453C49.9531 41.4453 47.0078 40.25 44.8672 37.8594C42.7578 35.5156 41.7031 32.3594 41.7031 28.3906ZM46.9062 24.4531C51.4062 24.2344 55.5234 23.9453 59.2578 23.5859C59.4297 18.6172 57.7109 16.1328 54.1016 16.1328C52.0859 16.1328 50.4375 16.9141 49.1562 18.4766C47.9844 19.9141 47.2344 21.9062 46.9062 24.4531ZM86.8906 20.9844L86.9141 20.1406C86.9141 19.8438 86.8438 19.3438 86.7031 18.6406C86.5625 17.9219 86.1094 17.3359 85.3438 16.8828C84.5938 16.4297 83.6328 16.2031 82.4609 16.2031C81.3047 16.2031 80.2734 16.5 79.3672 17.0938C78.4766 17.6719 77.75 18.4531 77.1875 19.4375C76.125 21.3125 75.5938 23.8203 75.5938 26.9609C75.5938 29.9297 76.3125 32.3438 77.75 34.2031C79.2188 36.1094 81.1562 37.0625 83.5625 37.0625C85.75 37.0625 87.8438 36.4609 89.8438 35.2578C90.3281 34.9609 90.7031 34.7031 90.9688 34.4844C91.125 34.4844 91.3047 34.6094 91.5078 34.8594C91.8984 35.3125 92.0938 35.6797 92.0938 35.9609C92.0938 36.2266 91.9844 36.5391 91.7656 36.8984C91.5469 37.2422 91.2266 37.6172 90.8047 38.0234C90.3984 38.4141 89.9062 38.8125 89.3281 39.2188C88.75 39.625 88.1016 39.9922 87.3828 40.3203C85.7422 41.0703 84.0625 41.4453 82.3438 41.4453C80.625 41.4453 79.0156 41.1562 77.5156 40.5781C76.0312 39.9844 74.75 39.1172 73.6719 37.9766C71.3594 35.5547 70.2031 32.2266 70.2031 27.9922C70.2031 23.1797 71.6719 19.3125 74.6094 16.3906C77.2812 13.75 80.3672 12.4297 83.8672 12.4297C86.1641 12.4297 88.0781 12.9219 89.6094 13.9062C91.2188 14.9375 92.0234 16.2969 92.0234 17.9844C92.0234 18.9062 91.8203 19.6016 91.4141 20.0703C90.7109 20.8984 89.8906 21.3125 88.9531 21.3125C88.0312 21.3125 87.3438 21.2031 86.8906 20.9844ZM102.102 8.07031C101.57 8.07031 101.078 7.99219 100.625 7.83594C100.188 7.66406 99.8047 7.42187 99.4766 7.10938C98.7891 6.45312 98.4453 5.57031 98.4453 4.46094C98.4453 3.39844 98.8516 2.5 99.6641 1.76562C100.445 1.03125 101.383 0.664062 102.477 0.664062C103.57 0.664062 104.445 0.992188 105.102 1.64844C105.758 2.30469 106.086 3.19531 106.086 4.32031C106.086 5.38281 105.695 6.28125 104.914 7.01562C104.148 7.71875 103.211 8.07031 102.102 8.07031ZM100.672 41C98.2656 41 97.0625 40.4531 97.0625 39.3594C97.0625 38.7969 97.1875 38.3594 97.4375 38.0469C97.8125 38.1719 98.1562 38.2344 98.4688 38.2344C99.9219 38.2344 100.633 37.3125 100.602 35.4688V19.7656C100.602 18.6719 100.445 17.9141 100.133 17.4922C99.8359 17.0547 99.2969 16.8359 98.5156 16.8359C97.9375 16.8359 97.4141 16.9062 96.9453 17.0469C96.6641 17.0781 96.4609 16.8594 96.3359 16.3906C96.2266 15.9688 96.2891 15.6016 96.5234 15.2891C96.7578 14.9609 97.1172 14.625 97.6016 14.2812C98.1016 13.9219 98.6484 13.6094 99.2422 13.3438C100.523 12.7344 101.594 12.4297 102.453 12.4297C103.312 12.4297 103.945 12.5547 104.352 12.8047C104.773 13.0547 105.094 13.3906 105.312 13.8125C105.656 14.5 105.828 15.6094 105.828 17.1406V35.8672C105.875 37.1016 106.32 37.8516 107.164 38.1172C107.398 38.1953 107.688 38.2656 108.031 38.3281C108.375 38.3906 108.68 38.4688 108.945 38.5625C109.227 38.6406 109.445 38.7344 109.602 38.8438C109.867 39.0469 110 39.375 110 39.8281C110 40.3906 109.883 40.8203 109.648 41.1172C109.32 41.0391 108.82 41 108.148 41H100.672ZM125.469 49.7656C125.672 50.0312 125.773 50.3672 125.773 50.7734C125.773 51.1797 125.594 51.5234 125.234 51.8047C124.875 52.1016 124.438 52.3438 123.922 52.5312C122.938 52.875 121.992 53.0469 121.086 53.0469C120.18 53.0469 119.43 52.9844 118.836 52.8594C118.242 52.7344 117.75 52.5156 117.359 52.2031C116.609 51.5781 116.234 50.5234 116.234 49.0391V20.1406C116.234 18.6719 115.961 17.7578 115.414 17.3984C115.195 17.2578 114.906 17.1875 114.547 17.1875C114.188 17.1875 113.898 17.2422 113.68 17.3516C113.477 17.4609 113.305 17.5391 113.164 17.5859C113.039 17.6328 112.93 17.6328 112.836 17.5859C112.742 17.5234 112.648 17.4375 112.555 17.3281C112.32 17.0469 112.203 16.7812 112.203 16.5312C112.203 16.2656 112.297 15.9844 112.484 15.6875C112.688 15.375 113.008 15.0234 113.445 14.6328C113.883 14.2266 114.383 13.8594 114.945 13.5312C116.211 12.7969 117.477 12.4297 118.742 12.4297C120.273 12.4297 121.156 13.5781 121.391 15.875C123.844 13.5781 126.516 12.4297 129.406 12.4297C132.594 12.4297 135.203 13.5312 137.234 15.7344C139.438 18.1094 140.539 21.4219 140.539 25.6719C140.539 28.8438 139.82 31.6797 138.383 34.1797C137.07 36.4609 135.266 38.25 132.969 39.5469C130.766 40.8125 128.422 41.4453 125.938 41.4453C124.547 41.4453 123.055 41.2266 121.461 40.7891V44.0469C121.461 46.5781 121.602 48.1328 121.883 48.7109C122.18 49.3047 122.477 49.6562 122.773 49.7656C123.086 49.875 123.438 49.9297 123.828 49.9297C124.234 49.9297 124.781 49.875 125.469 49.7656ZM121.461 19.5312V35.7969C122.945 37.0625 124.734 37.6953 126.828 37.6953C129.266 37.6953 131.25 36.7969 132.781 35C134.406 33.0781 135.219 30.4609 135.219 27.1484C135.219 23.6641 134.5 21.0312 133.062 19.25C131.781 17.6406 130 16.8359 127.719 16.8359C125.438 16.8359 123.352 17.7344 121.461 19.5312ZM145.578 28.3906C145.578 26.5 145.773 24.8203 146.164 23.3516C146.555 21.8828 147.078 20.5703 147.734 19.4141C148.406 18.2422 149.188 17.2188 150.078 16.3438C150.984 15.4688 151.953 14.7422 152.984 14.1641C155.016 13.0078 157.016 12.4297 158.984 12.4297C160.953 12.4297 162.531 12.7812 163.719 13.4844C164.906 14.1719 165.875 15.0938 166.625 16.25C168.016 18.4531 168.711 21.3828 168.711 25.0391C168.711 26.3984 168.141 27.0938 167 27.125L150.641 27.4766C150.734 30.8672 151.609 33.375 153.266 35C154.672 36.375 156.492 37.0625 158.727 37.0625C162.055 37.0625 164.758 36.3672 166.836 34.9766C166.977 34.9766 167.148 35.0938 167.352 35.3281C167.742 35.7969 167.938 36.2031 167.938 36.5469C167.938 37.2969 167 38.2578 165.125 39.4297C162.969 40.7734 160.453 41.4453 157.578 41.4453C153.828 41.4453 150.883 40.25 148.742 37.8594C146.633 35.5156 145.578 32.3594 145.578 28.3906ZM150.781 24.4531C155.281 24.2344 159.398 23.9453 163.133 23.5859C163.305 18.6172 161.586 16.1328 157.977 16.1328C155.961 16.1328 154.312 16.9141 153.031 18.4766C151.859 19.9141 151.109 21.9062 150.781 24.4531Z" fill="black"/>
<path d="M19.0625 41.1875L18.734 42.132L19.4017 42.3643L19.8434 41.8122L19.0625 41.1875ZM5.25781 40.625L4.77698 41.5018L4.788 41.5079L4.79917 41.5136L5.25781 40.625ZM4.88281 38L5.13731 37.0329L4.50383 36.8662L4.09793 37.3804L4.88281 38ZM7.88281 38.0703L8.21316 39.0142L8.23385 39.0069L8.2542 38.9988L7.88281 38.0703ZM8.70312 37.4375L9.48801 38.0571L9.49569 38.0474L9.50313 38.0375L8.70312 37.4375ZM9.40625 10.3438H10.4062V10.3223L10.4053 10.3009L9.40625 10.3438ZM8.32812 8.25781L7.90907 9.16577L7.91649 9.1692L7.92396 9.1725L8.32812 8.25781ZM7.48438 8L7.26274 8.97518L7.27195 8.97718L7.48438 8ZM6.45312 7.76562L6.1784 8.72715L6.20477 8.73468L6.2315 8.74076L6.45312 7.76562ZM5.28125 4.88281L5.60977 3.93832L4.94203 3.70606L4.50038 4.25812L5.28125 4.88281ZM10.6484 5.07031V6.07031H10.6627L10.6769 6.06991L10.6484 5.07031ZM18.875 4.83594L18.8517 3.83619L18.8465 3.83634L18.875 4.83594ZM19.8828 4.8125V3.8125H19.8712L19.8596 3.81277L19.8828 4.8125ZM30.6875 7.39062L30.1037 8.20257L30.1073 8.20508L30.6875 7.39062ZM32 21.0312L32.7897 21.6448L32.79 21.6443L32 21.0312ZM25.0156 25.4375L24.7659 24.4692L22.6488 25.0152L24.4464 26.2597L25.0156 25.4375ZM27.7812 28.5312L28.6067 27.9668L28.6053 27.9647L27.7812 28.5312ZM30.2656 32.1641L29.4402 32.7286L29.4412 32.7301L30.2656 32.1641ZM37.3672 37.0859L37.7129 38.0243L37.7258 38.0195L37.7386 38.0144L37.3672 37.0859ZM37.9531 36.8516L37.602 35.9152L37.5918 35.919L37.5817 35.9231L37.9531 36.8516ZM38.8672 37.1562L38.0431 37.7228L38.0518 37.7353L38.0608 37.7476L38.8672 37.1562ZM38.7266 39.1016L39.5728 39.6344L39.5771 39.6275L39.5813 39.6205L38.7266 39.1016ZM37.6016 40.25L37.0228 39.4344L37.0127 39.4418L37.6016 40.25ZM30.8047 40.7891L30.3376 41.6733L30.3444 41.6768L30.8047 40.7891ZM28.5078 39.0781L27.7852 39.7693L27.7929 39.7774L27.8007 39.7852L28.5078 39.0781ZM26.6094 36.6406L25.7597 37.168L25.7663 37.1784L26.6094 36.6406ZM25.0156 33.8516L24.1197 34.2958L24.1248 34.306L24.1301 34.3161L25.0156 33.8516ZM23.6328 31.0625L22.7329 31.4986L22.7369 31.5067L23.6328 31.0625ZM21.2656 27.1484L20.5492 27.8461L20.5585 27.8556L20.568 27.8649L21.2656 27.1484ZM17.6094 23.5859L17.0402 22.7637L17.028 22.7721L17.0162 22.7809L17.6094 23.5859ZM19.4375 23.3516L19.4529 24.3514L19.4606 24.3513L19.4683 24.3511L19.4375 23.3516ZM22.8594 22.6953L22.5571 21.7421L22.5537 21.7432L22.8594 22.6953ZM26.0234 21.0312L26.6707 21.7936L26.6772 21.7879L26.0234 21.0312ZM26.3281 9.99219L27.019 9.2692L27.0172 9.26754L26.3281 9.99219ZM19.6719 7.67188L19.6829 6.67188H19.6719V7.67188ZM15.9219 8.51562L16.5695 9.27757L16.5803 9.26839L16.5908 9.25892L15.9219 8.51562ZM14.9375 11.5391L13.9377 11.518L13.9375 11.5285V11.5391H14.9375ZM15.9688 37.8125L15.538 38.715L15.5563 38.7237L15.5748 38.7316L15.9688 37.8125ZM17.8672 38.3281L17.5925 39.2896L17.6188 39.2972L17.6456 39.3033L17.8672 38.3281ZM19.391 40.243C19.0862 40.137 18.7 40.0828 18.3001 40.0502C17.8801 40.0159 17.3662 40 16.7656 40V42C17.3369 42 17.7917 42.0153 18.1374 42.0436C18.5032 42.0734 18.6795 42.113 18.734 42.132L19.391 40.243ZM16.7656 40H7.20312V42H16.7656V40ZM7.20312 40C6.47819 40 6.0065 39.8861 5.71646 39.7364L4.79917 41.5136C5.47787 41.8639 6.30306 42 7.20312 42V40ZM5.73865 39.7482C5.65712 39.7035 5.53125 39.6228 5.53125 39.1953H3.53125C3.53125 40.1428 3.88975 41.0153 4.77698 41.5018L5.73865 39.7482ZM5.53125 39.1953C5.53125 38.8476 5.61178 38.6905 5.6677 38.6196L4.09793 37.3804C3.68509 37.9033 3.53125 38.543 3.53125 39.1953H5.53125ZM4.62832 38.9671C5.29513 39.1426 5.95122 39.2344 6.59375 39.2344V37.2344C6.14253 37.2344 5.65799 37.1699 5.13731 37.0329L4.62832 38.9671ZM6.59375 39.2344C7.18974 39.2344 7.74776 39.1771 8.21316 39.0142L7.55246 37.1265C7.39287 37.1823 7.09151 37.2344 6.59375 37.2344V39.2344ZM8.2542 38.9988C8.74855 38.8011 9.1589 38.474 9.48801 38.0571L7.91824 36.8179C7.7786 36.9947 7.64208 37.0896 7.51142 37.1418L8.2542 38.9988ZM9.50313 38.0375C10.1732 37.1441 10.4062 35.8286 10.4062 34.3203H8.40625C8.40625 35.7183 8.17056 36.4809 7.90312 36.8375L9.50313 38.0375ZM10.4062 34.3203V10.3438H8.40625V34.3203H10.4062ZM10.4053 10.3009C10.3511 9.03618 9.90945 7.86327 8.73229 7.34313L7.92396 9.1725C8.09055 9.24611 8.36762 9.46382 8.40717 10.3866L10.4053 10.3009ZM8.74718 7.34985C8.44937 7.2124 8.08814 7.1079 7.6968 7.02282L7.27195 8.97718C7.59936 9.04836 7.80063 9.11573 7.90907 9.16577L8.74718 7.34985ZM7.706 7.02487C7.70532 7.02471 7.70465 7.02456 7.70398 7.02441C7.70331 7.02426 7.70264 7.0241 7.70197 7.02395C7.7013 7.0238 7.70062 7.02365 7.69995 7.02349C7.69928 7.02334 7.69861 7.02319 7.69794 7.02304C7.69727 7.02288 7.6966 7.02273 7.69593 7.02258C7.69525 7.02243 7.69458 7.02227 7.69391 7.02212C7.69324 7.02197 7.69257 7.02182 7.6919 7.02166C7.69123 7.02151 7.69055 7.02136 7.68988 7.0212C7.68921 7.02105 7.68854 7.0209 7.68787 7.02075C7.6872 7.02059 7.68653 7.02044 7.68585 7.02029C7.68518 7.02014 7.68451 7.01998 7.68384 7.01983C7.68317 7.01968 7.6825 7.01953 7.68183 7.01937C7.68115 7.01922 7.68048 7.01907 7.67981 7.01892C7.67914 7.01876 7.67847 7.01861 7.6778 7.01846C7.67713 7.01831 7.67646 7.01815 7.67578 7.018C7.67511 7.01785 7.67444 7.0177 7.67377 7.01754C7.6731 7.01739 7.67243 7.01724 7.67176 7.01709C7.67108 7.01693 7.67041 7.01678 7.66974 7.01663C7.66907 7.01647 7.6684 7.01632 7.66773 7.01617C7.66706 7.01602 7.66638 7.01586 7.66571 7.01571C7.66504 7.01556 7.66437 7.01541 7.6637 7.01525C7.66303 7.0151 7.66236 7.01495 7.66168 7.0148C7.66101 7.01464 7.66034 7.01449 7.65967 7.01434C7.659 7.01419 7.65833 7.01403 7.65766 7.01388C7.65698 7.01373 7.65631 7.01358 7.65564 7.01342C7.65497 7.01327 7.6543 7.01312 7.65363 7.01297C7.65296 7.01281 7.65229 7.01266 7.65161 7.01251C7.65094 7.01235 7.65027 7.0122 7.6496 7.01205C7.64893 7.0119 7.64826 7.01174 7.64759 7.01159C7.64691 7.01144 7.64624 7.01129 7.64557 7.01113C7.6449 7.01098 7.64423 7.01083 7.64356 7.01068C7.64289 7.01052 7.64221 7.01037 7.64154 7.01022C7.64087 7.01007 7.6402 7.00991 7.63953 7.00976C7.63886 7.00961 7.63819 7.00946 7.63751 7.0093C7.63684 7.00915 7.63617 7.009 7.6355 7.00885C7.63483 7.00869 7.63416 7.00854 7.63349 7.00839C7.63281 7.00823 7.63214 7.00808 7.63147 7.00793C7.6308 7.00778 7.63013 7.00762 7.62946 7.00747C7.62879 7.00732 7.62812 7.00717 7.62744 7.00701C7.62677 7.00686 7.6261 7.00671 7.62543 7.00656C7.62476 7.0064 7.62409 7.00625 7.62342 7.0061C7.62274 7.00595 7.62207 7.00579 7.6214 7.00564C7.62073 7.00549 7.62006 7.00534 7.61939 7.00518C7.61872 7.00503 7.61804 7.00488 7.61737 7.00473C7.6167 7.00457 7.61603 7.00442 7.61536 7.00427C7.61469 7.00412 7.61402 7.00396 7.61334 7.00381C7.61267 7.00366 7.612 7.0035 7.61133 7.00335C7.61066 7.0032 7.60999 7.00305 7.60932 7.00289C7.60864 7.00274 7.60797 7.00259 7.6073 7.00244C7.60663 7.00228 7.60596 7.00213 7.60529 7.00198C7.60462 7.00183 7.60395 7.00167 7.60327 7.00152C7.6026 7.00137 7.60193 7.00122 7.60126 7.00106C7.60059 7.00091 7.59992 7.00076 7.59925 7.00061C7.59857 7.00045 7.5979 7.0003 7.59723 7.00015C7.59656 7 7.59589 6.99984 7.59522 6.99969C7.59455 6.99954 7.59387 6.99938 7.5932 6.99923C7.59253 6.99908 7.59186 6.99893 7.59119 6.99877C7.59052 6.99862 7.58985 6.99847 7.58917 6.99832C7.5885 6.99816 7.58783 6.99801 7.58716 6.99786C7.58649 6.99771 7.58582 6.99755 7.58515 6.9974C7.58448 6.99725 7.5838 6.9971 7.58313 6.99694C7.58246 6.99679 7.58179 6.99664 7.58112 6.99649C7.58045 6.99633 7.57978 6.99618 7.5791 6.99603C7.57843 6.99588 7.57776 6.99572 7.57709 6.99557C7.57642 6.99542 7.57575 6.99527 7.57508 6.99511C7.5744 6.99496 7.57373 6.99481 7.57306 6.99465C7.57239 6.9945 7.57172 6.99435 7.57105 6.9942C7.57038 6.99404 7.5697 6.99389 7.56903 6.99374C7.56836 6.99359 7.56769 6.99343 7.56702 6.99328C7.56635 6.99313 7.56568 6.99298 7.565 6.99282C7.56433 6.99267 7.56366 6.99252 7.56299 6.99237C7.56232 6.99221 7.56165 6.99206 7.56098 6.99191C7.56031 6.99176 7.55963 6.9916 7.55896 6.99145C7.55829 6.9913 7.55762 6.99115 7.55695 6.99099C7.55628 6.99084 7.55561 6.99069 7.55493 6.99053C7.55426 6.99038 7.55359 6.99023 7.55292 6.99008C7.55225 6.98992 7.55158 6.98977 7.55091 6.98962C7.55023 6.98947 7.54956 6.98931 7.54889 6.98916C7.54822 6.98901 7.54755 6.98886 7.54688 6.9887C7.54621 6.98855 7.54553 6.9884 7.54486 6.98825C7.54419 6.98809 7.54352 6.98794 7.54285 6.98779C7.54218 6.98764 7.54151 6.98748 7.54083 6.98733C7.54016 6.98718 7.53949 6.98703 7.53882 6.98687C7.53815 6.98672 7.53748 6.98657 7.53681 6.98641C7.53614 6.98626 7.53546 6.98611 7.53479 6.98596C7.53412 6.9858 7.53345 6.98565 7.53278 6.9855C7.53211 6.98535 7.53144 6.98519 7.53076 6.98504C7.53009 6.98489 7.52942 6.98474 7.52875 6.98458C7.52808 6.98443 7.52741 6.98428 7.52674 6.98413C7.52606 6.98397 7.52539 6.98382 7.52472 6.98367C7.52405 6.98352 7.52338 6.98336 7.52271 6.98321C7.52204 6.98306 7.52136 6.98291 7.52069 6.98275C7.52002 6.9826 7.51935 6.98245 7.51868 6.9823C7.51801 6.98214 7.51734 6.98199 7.51666 6.98184C7.51599 6.98168 7.51532 6.98153 7.51465 6.98138C7.51398 6.98123 7.51331 6.98107 7.51264 6.98092C7.51197 6.98077 7.51129 6.98062 7.51062 6.98046C7.50995 6.98031 7.50928 6.98016 7.50861 6.98001C7.50794 6.97985 7.50727 6.9797 7.50659 6.97955C7.50592 6.9794 7.50525 6.97924 7.50458 6.97909C7.50391 6.97894 7.50324 6.97879 7.50257 6.97863C7.50189 6.97848 7.50122 6.97833 7.50055 6.97818C7.49988 6.97802 7.49921 6.97787 7.49854 6.97772C7.49787 6.97756 7.49719 6.97741 7.49652 6.97726C7.49585 6.97711 7.49518 6.97695 7.49451 6.9768C7.49384 6.97665 7.49317 6.9765 7.4925 6.97634C7.49182 6.97619 7.49115 6.97604 7.49048 6.97589C7.48981 6.97573 7.48914 6.97558 7.48847 6.97543C7.4878 6.97528 7.48712 6.97512 7.48645 6.97497C7.48578 6.97482 7.48511 6.97467 7.48444 6.97451C7.48377 6.97436 7.4831 6.97421 7.48242 6.97406C7.48175 6.9739 7.48108 6.97375 7.48041 6.9736C7.47974 6.97344 7.47907 6.97329 7.4784 6.97314C7.47772 6.97299 7.47705 6.97283 7.47638 6.97268C7.47571 6.97253 7.47504 6.97238 7.47437 6.97222C7.4737 6.97207 7.47302 6.97192 7.47235 6.97177C7.47168 6.97161 7.47101 6.97146 7.47034 6.97131C7.46967 6.97116 7.469 6.971 7.46833 6.97085C7.46765 6.9707 7.46698 6.97055 7.46631 6.97039C7.46564 6.97024 7.46497 6.97009 7.4643 6.96994C7.46363 6.96978 7.46295 6.96963 7.46228 6.96948C7.46161 6.96933 7.46094 6.96917 7.46027 6.96902C7.4596 6.96887 7.45893 6.96871 7.45825 6.96856C7.45758 6.96841 7.45691 6.96826 7.45624 6.9681C7.45557 6.96795 7.4549 6.9678 7.45423 6.96765C7.45355 6.96749 7.45288 6.96734 7.45221 6.96719C7.45154 6.96704 7.45087 6.96688 7.4502 6.96673C7.44953 6.96658 7.44885 6.96643 7.44818 6.96627C7.44751 6.96612 7.44684 6.96597 7.44617 6.96582C7.4455 6.96566 7.44483 6.96551 7.44416 6.96536C7.44348 6.96521 7.44281 6.96505 7.44214 6.9649C7.44147 6.96475 7.4408 6.96459 7.44013 6.96444C7.43946 6.96429 7.43878 6.96414 7.43811 6.96398C7.43744 6.96383 7.43677 6.96368 7.4361 6.96353C7.43543 6.96337 7.43476 6.96322 7.43408 6.96307C7.43341 6.96292 7.43274 6.96276 7.43207 6.96261C7.4314 6.96246 7.43073 6.96231 7.43006 6.96215C7.42938 6.962 7.42871 6.96185 7.42804 6.9617C7.42737 6.96154 7.4267 6.96139 7.42603 6.96124C7.42536 6.96109 7.42469 6.96093 7.42401 6.96078C7.42334 6.96063 7.42267 6.96047 7.422 6.96032C7.42133 6.96017 7.42066 6.96002 7.41999 6.95986C7.41931 6.95971 7.41864 6.95956 7.41797 6.95941C7.4173 6.95925 7.41663 6.9591 7.41596 6.95895C7.41529 6.9588 7.41461 6.95864 7.41394 6.95849C7.41327 6.95834 7.4126 6.95819 7.41193 6.95803C7.41126 6.95788 7.41059 6.95773 7.40991 6.95758C7.40924 6.95742 7.40857 6.95727 7.4079 6.95712C7.40723 6.95697 7.40656 6.95681 7.40589 6.95666C7.40521 6.95651 7.40454 6.95636 7.40387 6.9562C7.4032 6.95605 7.40253 6.9559 7.40186 6.95574C7.40119 6.95559 7.40052 6.95544 7.39984 6.95529C7.39917 6.95513 7.3985 6.95498 7.39783 6.95483C7.39716 6.95468 7.39649 6.95452 7.39582 6.95437C7.39514 6.95422 7.39447 6.95407 7.3938 6.95391C7.39313 6.95376 7.39246 6.95361 7.39179 6.95346C7.39112 6.9533 7.39044 6.95315 7.38977 6.953C7.3891 6.95285 7.38843 6.95269 7.38776 6.95254C7.38709 6.95239 7.38642 6.95224 7.38574 6.95208C7.38507 6.95193 7.3844 6.95178 7.38373 6.95162C7.38306 6.95147 7.38239 6.95132 7.38172 6.95117C7.38104 6.95101 7.38037 6.95086 7.3797 6.95071C7.37903 6.95056 7.37836 6.9504 7.37769 6.95025C7.37702 6.9501 7.37635 6.94995 7.37567 6.94979C7.375 6.94964 7.37433 6.94949 7.37366 6.94934C7.37299 6.94918 7.37232 6.94903 7.37165 6.94888C7.37097 6.94873 7.3703 6.94857 7.36963 6.94842C7.36896 6.94827 7.36829 6.94812 7.36762 6.94796C7.36695 6.94781 7.36627 6.94766 7.3656 6.9475C7.36493 6.94735 7.36426 6.9472 7.36359 6.94705C7.36292 6.94689 7.36225 6.94674 7.36157 6.94659C7.3609 6.94644 7.36023 6.94628 7.35956 6.94613C7.35889 6.94598 7.35822 6.94583 7.35755 6.94567C7.35687 6.94552 7.3562 6.94537 7.35553 6.94522C7.35486 6.94506 7.35419 6.94491 7.35352 6.94476C7.35285 6.94461 7.35218 6.94445 7.3515 6.9443C7.35083 6.94415 7.35016 6.944 7.34949 6.94384C7.34882 6.94369 7.34815 6.94354 7.34748 6.94339C7.3468 6.94323 7.34613 6.94308 7.34546 6.94293C7.34479 6.94277 7.34412 6.94262 7.34345 6.94247C7.34278 6.94232 7.3421 6.94216 7.34143 6.94201C7.34076 6.94186 7.34009 6.94171 7.33942 6.94155C7.33875 6.9414 7.33808 6.94125 7.3374 6.9411C7.33673 6.94094 7.33606 6.94079 7.33539 6.94064C7.33472 6.94049 7.33405 6.94033 7.33338 6.94018C7.33271 6.94003 7.33203 6.93988 7.33136 6.93972C7.33069 6.93957 7.33002 6.93942 7.32935 6.93927C7.32868 6.93911 7.32801 6.93896 7.32733 6.93881C7.32666 6.93865 7.32599 6.9385 7.32532 6.93835C7.32465 6.9382 7.32398 6.93804 7.32331 6.93789C7.32263 6.93774 7.32196 6.93759 7.32129 6.93743C7.32062 6.93728 7.31995 6.93713 7.31928 6.93698C7.31861 6.93682 7.31793 6.93667 7.31726 6.93652C7.31659 6.93637 7.31592 6.93621 7.31525 6.93606C7.31458 6.93591 7.31391 6.93576 7.31323 6.9356C7.31256 6.93545 7.31189 6.9353 7.31122 6.93515C7.31055 6.93499 7.30988 6.93484 7.30921 6.93469C7.30854 6.93454 7.30786 6.93438 7.30719 6.93423C7.30652 6.93408 7.30585 6.93392 7.30518 6.93377C7.30451 6.93362 7.30384 6.93347 7.30316 6.93331C7.30249 6.93316 7.30182 6.93301 7.30115 6.93286C7.30048 6.9327 7.29981 6.93255 7.29914 6.9324C7.29846 6.93225 7.29779 6.93209 7.29712 6.93194C7.29645 6.93179 7.29578 6.93164 7.29511 6.93148C7.29444 6.93133 7.29376 6.93118 7.29309 6.93103C7.29242 6.93087 7.29175 6.93072 7.29108 6.93057C7.29041 6.93042 7.28974 6.93026 7.28906 6.93011C7.28839 6.92996 7.28772 6.9298 7.28705 6.92965C7.28638 6.9295 7.28571 6.92935 7.28504 6.92919C7.28437 6.92904 7.28369 6.92889 7.28302 6.92874C7.28235 6.92858 7.28168 6.92843 7.28101 6.92828C7.28034 6.92813 7.27967 6.92797 7.27899 6.92782C7.27832 6.92767 7.27765 6.92752 7.27698 6.92736C7.27631 6.92721 7.27564 6.92706 7.27497 6.92691C7.27429 6.92675 7.27362 6.9266 7.27295 6.92645C7.27228 6.9263 7.27161 6.92614 7.27094 6.92599C7.27027 6.92584 7.26959 6.92568 7.26892 6.92553C7.26825 6.92538 7.26758 6.92523 7.26691 6.92507C7.26624 6.92492 7.26557 6.92477 7.26489 6.92462C7.26422 6.92446 7.26355 6.92431 7.26288 6.92416C7.26221 6.92401 7.26154 6.92385 7.26087 6.9237C7.2602 6.92355 7.25952 6.9234 7.25885 6.92324C7.25818 6.92309 7.25751 6.92294 7.25684 6.92279C7.25617 6.92263 7.2555 6.92248 7.25482 6.92233C7.25415 6.92218 7.25348 6.92202 7.25281 6.92187C7.25214 6.92172 7.25147 6.92157 7.2508 6.92141C7.25012 6.92126 7.24945 6.92111 7.24878 6.92095C7.24811 6.9208 7.24744 6.92065 7.24677 6.9205C7.2461 6.92034 7.24542 6.92019 7.24475 6.92004C7.24408 6.91989 7.24341 6.91973 7.24274 6.91958C7.24207 6.91943 7.2414 6.91928 7.24073 6.91912C7.24005 6.91897 7.23938 6.91882 7.23871 6.91867C7.23804 6.91851 7.23737 6.91836 7.2367 6.91821C7.23603 6.91806 7.23535 6.9179 7.23468 6.91775C7.23401 6.9176 7.23334 6.91745 7.23267 6.91729C7.232 6.91714 7.23133 6.91699 7.23065 6.91683C7.22998 6.91668 7.22931 6.91653 7.22864 6.91638C7.22797 6.91622 7.2273 6.91607 7.22663 6.91592C7.22595 6.91577 7.22528 6.91561 7.22461 6.91546C7.22394 6.91531 7.22327 6.91516 7.2226 6.915C7.22193 6.91485 7.22125 6.9147 7.22058 6.91455C7.21991 6.91439 7.21924 6.91424 7.21857 6.91409C7.2179 6.91394 7.21723 6.91378 7.21656 6.91363C7.21588 6.91348 7.21521 6.91333 7.21454 6.91317C7.21387 6.91302 7.2132 6.91287 7.21253 6.91271C7.21186 6.91256 7.21118 6.91241 7.21051 6.91226C7.20984 6.9121 7.20917 6.91195 7.2085 6.9118C7.20783 6.91165 7.20716 6.91149 7.20648 6.91134C7.20581 6.91119 7.20514 6.91104 7.20447 6.91088C7.2038 6.91073 7.20313 6.91058 7.20246 6.91043C7.20178 6.91027 7.20111 6.91012 7.20044 6.90997C7.19977 6.90982 7.1991 6.90966 7.19843 6.90951C7.19776 6.90936 7.19708 6.90921 7.19641 6.90905C7.19574 6.9089 7.19507 6.90875 7.1944 6.9086C7.19373 6.90844 7.19306 6.90829 7.19239 6.90814C7.19171 6.90798 7.19104 6.90783 7.19037 6.90768C7.1897 6.90753 7.18903 6.90737 7.18836 6.90722C7.18769 6.90707 7.18701 6.90692 7.18634 6.90676C7.18567 6.90661 7.185 6.90646 7.18433 6.90631C7.18366 6.90615 7.18299 6.906 7.18231 6.90585C7.18164 6.9057 7.18097 6.90554 7.1803 6.90539C7.17963 6.90524 7.17896 6.90509 7.17829 6.90493C7.17761 6.90478 7.17694 6.90463 7.17627 6.90448C7.1756 6.90432 7.17493 6.90417 7.17426 6.90402C7.17359 6.90386 7.17291 6.90371 7.17224 6.90356C7.17157 6.90341 7.1709 6.90325 7.17023 6.9031C7.16956 6.90295 7.16889 6.9028 7.16822 6.90264C7.16754 6.90249 7.16687 6.90234 7.1662 6.90219C7.16553 6.90203 7.16486 6.90188 7.16419 6.90173C7.16352 6.90158 7.16284 6.90142 7.16217 6.90127C7.1615 6.90112 7.16083 6.90097 7.16016 6.90081C7.15949 6.90066 7.15882 6.90051 7.15814 6.90036C7.15747 6.9002 7.1568 6.90005 7.15613 6.8999C7.15546 6.89974 7.15479 6.89959 7.15412 6.89944C7.15344 6.89929 7.15277 6.89913 7.1521 6.89898C7.15143 6.89883 7.15076 6.89868 7.15009 6.89852C7.14942 6.89837 7.14875 6.89822 7.14807 6.89807C7.1474 6.89791 7.14673 6.89776 7.14606 6.89761C7.14539 6.89746 7.14472 6.8973 7.14405 6.89715C7.14337 6.897 7.1427 6.89685 7.14203 6.89669C7.14136 6.89654 7.14069 6.89639 7.14002 6.89624C7.13935 6.89608 7.13867 6.89593 7.138 6.89578C7.13733 6.89563 7.13666 6.89547 7.13599 6.89532C7.13532 6.89517 7.13465 6.89501 7.13397 6.89486C7.1333 6.89471 7.13263 6.89456 7.13196 6.8944C7.13129 6.89425 7.13062 6.8941 7.12995 6.89395C7.12927 6.89379 7.1286 6.89364 7.12793 6.89349C7.12726 6.89334 7.12659 6.89318 7.12592 6.89303C7.12525 6.89288 7.12458 6.89273 7.1239 6.89257C7.12323 6.89242 7.12256 6.89227 7.12189 6.89212C7.12122 6.89196 7.12055 6.89181 7.11988 6.89166C7.1192 6.89151 7.11853 6.89135 7.11786 6.8912C7.11719 6.89105 7.11652 6.89089 7.11585 6.89074C7.11518 6.89059 7.1145 6.89044 7.11383 6.89028C7.11316 6.89013 7.11249 6.88998 7.11182 6.88983C7.11115 6.88967 7.11048 6.88952 7.1098 6.88937C7.10913 6.88922 7.10846 6.88906 7.10779 6.88891C7.10712 6.88876 7.10645 6.88861 7.10578 6.88845C7.1051 6.8883 7.10443 6.88815 7.10376 6.888C7.10309 6.88784 7.10242 6.88769 7.10175 6.88754C7.10108 6.88739 7.10041 6.88723 7.09973 6.88708C7.09906 6.88693 7.09839 6.88678 7.09772 6.88662C7.09705 6.88647 7.09638 6.88632 7.09571 6.88616C7.09503 6.88601 7.09436 6.88586 7.09369 6.88571C7.09302 6.88555 7.09235 6.8854 7.09168 6.88525C7.09101 6.8851 7.09033 6.88494 7.08966 6.88479C7.08899 6.88464 7.08832 6.88449 7.08765 6.88433C7.08698 6.88418 7.08631 6.88403 7.08563 6.88388C7.08496 6.88372 7.08429 6.88357 7.08362 6.88342C7.08295 6.88327 7.08228 6.88311 7.08161 6.88296C7.08094 6.88281 7.08026 6.88266 7.07959 6.8825C7.07892 6.88235 7.07825 6.8822 7.07758 6.88204C7.07691 6.88189 7.07624 6.88174 7.07556 6.88159C7.07489 6.88143 7.07422 6.88128 7.07355 6.88113C7.07288 6.88098 7.07221 6.88082 7.07154 6.88067C7.07086 6.88052 7.07019 6.88037 7.06952 6.88021C7.06885 6.88006 7.06818 6.87991 7.06751 6.87976C7.06684 6.8796 7.06616 6.87945 7.06549 6.8793C7.06482 6.87915 7.06415 6.87899 7.06348 6.87884C7.06281 6.87869 7.06214 6.87854 7.06146 6.87838C7.06079 6.87823 7.06012 6.87808 7.05945 6.87792C7.05878 6.87777 7.05811 6.87762 7.05744 6.87747C7.05677 6.87731 7.05609 6.87716 7.05542 6.87701C7.05475 6.87686 7.05408 6.8767 7.05341 6.87655C7.05274 6.8764 7.05207 6.87625 7.05139 6.87609C7.05072 6.87594 7.05005 6.87579 7.04938 6.87564C7.04871 6.87548 7.04804 6.87533 7.04737 6.87518C7.04669 6.87503 7.04602 6.87487 7.04535 6.87472C7.04468 6.87457 7.04401 6.87442 7.04334 6.87426C7.04267 6.87411 7.04199 6.87396 7.04132 6.87381C7.04065 6.87365 7.03998 6.8735 7.03931 6.87335C7.03864 6.87319 7.03797 6.87304 7.03729 6.87289C7.03662 6.87274 7.03595 6.87258 7.03528 6.87243C7.03461 6.87228 7.03394 6.87213 7.03327 6.87197C7.0326 6.87182 7.03192 6.87167 7.03125 6.87152C7.03058 6.87136 7.02991 6.87121 7.02924 6.87106C7.02857 6.87091 7.0279 6.87075 7.02722 6.8706C7.02655 6.87045 7.02588 6.8703 7.02521 6.87014C7.02454 6.86999 7.02387 6.86984 7.0232 6.86969C7.02252 6.86953 7.02185 6.86938 7.02118 6.86923C7.02051 6.86907 7.01984 6.86892 7.01917 6.86877C7.0185 6.86862 7.01782 6.86846 7.01715 6.86831C7.01648 6.86816 7.01581 6.86801 7.01514 6.86785C7.01447 6.8677 7.0138 6.86755 7.01312 6.8674C7.01245 6.86724 7.01178 6.86709 7.01111 6.86694C7.01044 6.86679 7.00977 6.86663 7.0091 6.86648C7.00843 6.86633 7.00775 6.86618 7.00708 6.86602C7.00641 6.86587 7.00574 6.86572 7.00507 6.86557C7.0044 6.86541 7.00373 6.86526 7.00305 6.86511C7.00238 6.86495 7.00171 6.8648 7.00104 6.86465C7.00037 6.8645 6.9997 6.86434 6.99903 6.86419C6.99835 6.86404 6.99768 6.86389 6.99701 6.86373C6.99634 6.86358 6.99567 6.86343 6.995 6.86328C6.99433 6.86312 6.99365 6.86297 6.99298 6.86282C6.99231 6.86267 6.99164 6.86251 6.99097 6.86236C6.9903 6.86221 6.98963 6.86206 6.98896 6.8619C6.98828 6.86175 6.98761 6.8616 6.98694 6.86145C6.98627 6.86129 6.9856 6.86114 6.98493 6.86099C6.98426 6.86084 6.98358 6.86068 6.98291 6.86053C6.98224 6.86038 6.98157 6.86022 6.9809 6.86007C6.98023 6.85992 6.97956 6.85977 6.97888 6.85961C6.97821 6.85946 6.97754 6.85931 6.97687 6.85916C6.9762 6.859 6.97553 6.85885 6.97486 6.8587C6.97418 6.85855 6.97351 6.85839 6.97284 6.85824C6.97217 6.85809 6.9715 6.85794 6.97083 6.85778C6.97016 6.85763 6.96948 6.85748 6.96881 6.85733C6.96814 6.85717 6.96747 6.85702 6.9668 6.85687C6.96613 6.85672 6.96546 6.85656 6.96479 6.85641C6.96411 6.85626 6.96344 6.8561 6.96277 6.85595C6.9621 6.8558 6.96143 6.85565 6.96076 6.85549C6.96009 6.85534 6.95941 6.85519 6.95874 6.85504C6.95807 6.85488 6.9574 6.85473 6.95673 6.85458C6.95606 6.85443 6.95539 6.85427 6.95471 6.85412C6.95404 6.85397 6.95337 6.85382 6.9527 6.85366C6.95203 6.85351 6.95136 6.85336 6.95069 6.85321C6.95001 6.85305 6.94934 6.8529 6.94867 6.85275C6.948 6.8526 6.94733 6.85244 6.94666 6.85229C6.94599 6.85214 6.94531 6.85198 6.94464 6.85183C6.94397 6.85168 6.9433 6.85153 6.94263 6.85137C6.94196 6.85122 6.94129 6.85107 6.94062 6.85092C6.93994 6.85076 6.93927 6.85061 6.9386 6.85046C6.93793 6.85031 6.93726 6.85015 6.93659 6.85C6.93592 6.84985 6.93524 6.8497 6.93457 6.84954C6.9339 6.84939 6.93323 6.84924 6.93256 6.84909C6.93189 6.84893 6.93122 6.84878 6.93054 6.84863C6.92987 6.84848 6.9292 6.84832 6.92853 6.84817C6.92786 6.84802 6.92719 6.84787 6.92652 6.84771C6.92584 6.84756 6.92517 6.84741 6.9245 6.84725C6.92383 6.8471 6.92316 6.84695 6.92249 6.8468C6.92182 6.84664 6.92114 6.84649 6.92047 6.84634C6.9198 6.84619 6.91913 6.84603 6.91846 6.84588C6.91779 6.84573 6.91712 6.84558 6.91645 6.84542C6.91577 6.84527 6.9151 6.84512 6.91443 6.84497C6.91376 6.84481 6.91309 6.84466 6.91242 6.84451C6.91175 6.84436 6.91107 6.8442 6.9104 6.84405C6.90973 6.8439 6.90906 6.84375 6.90839 6.84359C6.90772 6.84344 6.90705 6.84329 6.90637 6.84313C6.9057 6.84298 6.90503 6.84283 6.90436 6.84268C6.90369 6.84252 6.90302 6.84237 6.90235 6.84222C6.90167 6.84207 6.901 6.84191 6.90033 6.84176C6.89966 6.84161 6.89899 6.84146 6.89832 6.8413C6.89765 6.84115 6.89698 6.841 6.8963 6.84085C6.89563 6.84069 6.89496 6.84054 6.89429 6.84039C6.89362 6.84024 6.89295 6.84008 6.89228 6.83993C6.8916 6.83978 6.89093 6.83963 6.89026 6.83947C6.88959 6.83932 6.88892 6.83917 6.88825 6.83902C6.88758 6.83886 6.8869 6.83871 6.88623 6.83856C6.88556 6.8384 6.88489 6.83825 6.88422 6.8381C6.88355 6.83795 6.88288 6.83779 6.8822 6.83764C6.88153 6.83749 6.88086 6.83734 6.88019 6.83718C6.87952 6.83703 6.87885 6.83688 6.87818 6.83673C6.8775 6.83657 6.87683 6.83642 6.87616 6.83627C6.87549 6.83612 6.87482 6.83596 6.87415 6.83581C6.87348 6.83566 6.87281 6.83551 6.87213 6.83535C6.87146 6.8352 6.87079 6.83505 6.87012 6.8349C6.86945 6.83474 6.86878 6.83459 6.86811 6.83444C6.86743 6.83428 6.86676 6.83413 6.86609 6.83398C6.86542 6.83383 6.86475 6.83367 6.86408 6.83352C6.86341 6.83337 6.86273 6.83322 6.86206 6.83306C6.86139 6.83291 6.86072 6.83276 6.86005 6.83261C6.85938 6.83245 6.85871 6.8323 6.85803 6.83215C6.85736 6.832 6.85669 6.83184 6.85602 6.83169C6.85535 6.83154 6.85468 6.83139 6.85401 6.83123C6.85333 6.83108 6.85266 6.83093 6.85199 6.83078C6.85132 6.83062 6.85065 6.83047 6.84998 6.83032C6.84931 6.83016 6.84864 6.83001 6.84796 6.82986C6.84729 6.82971 6.84662 6.82955 6.84595 6.8294C6.84528 6.82925 6.84461 6.8291 6.84394 6.82894C6.84326 6.82879 6.84259 6.82864 6.84192 6.82849C6.84125 6.82833 6.84058 6.82818 6.83991 6.82803C6.83924 6.82788 6.83856 6.82772 6.83789 6.82757C6.83722 6.82742 6.83655 6.82727 6.83588 6.82711C6.83521 6.82696 6.83454 6.82681 6.83386 6.82666C6.83319 6.8265 6.83252 6.82635 6.83185 6.8262C6.83118 6.82605 6.83051 6.82589 6.82984 6.82574C6.82916 6.82559 6.82849 6.82543 6.82782 6.82528C6.82715 6.82513 6.82648 6.82498 6.82581 6.82482C6.82514 6.82467 6.82447 6.82452 6.82379 6.82437C6.82312 6.82421 6.82245 6.82406 6.82178 6.82391C6.82111 6.82376 6.82044 6.8236 6.81977 6.82345C6.81909 6.8233 6.81842 6.82315 6.81775 6.82299C6.81708 6.82284 6.81641 6.82269 6.81574 6.82254C6.81507 6.82238 6.81439 6.82223 6.81372 6.82208C6.81305 6.82193 6.81238 6.82177 6.81171 6.82162C6.81104 6.82147 6.81037 6.82131 6.80969 6.82116C6.80902 6.82101 6.80835 6.82086 6.80768 6.8207C6.80701 6.82055 6.80634 6.8204 6.80567 6.82025C6.805 6.82009 6.80432 6.81994 6.80365 6.81979C6.80298 6.81964 6.80231 6.81948 6.80164 6.81933C6.80097 6.81918 6.8003 6.81903 6.79962 6.81887C6.79895 6.81872 6.79828 6.81857 6.79761 6.81842C6.79694 6.81826 6.79627 6.81811 6.7956 6.81796C6.79492 6.81781 6.79425 6.81765 6.79358 6.8175C6.79291 6.81735 6.79224 6.81719 6.79157 6.81704C6.7909 6.81689 6.79022 6.81674 6.78955 6.81658C6.78888 6.81643 6.78821 6.81628 6.78754 6.81613C6.78687 6.81597 6.7862 6.81582 6.78552 6.81567C6.78485 6.81552 6.78418 6.81536 6.78351 6.81521C6.78284 6.81506 6.78217 6.81491 6.7815 6.81475C6.78083 6.8146 6.78015 6.81445 6.77948 6.8143C6.77881 6.81414 6.77814 6.81399 6.77747 6.81384C6.7768 6.81369 6.77613 6.81353 6.77545 6.81338C6.77478 6.81323 6.77411 6.81308 6.77344 6.81292C6.77277 6.81277 6.7721 6.81262 6.77143 6.81246C6.77075 6.81231 6.77008 6.81216 6.76941 6.81201C6.76874 6.81185 6.76807 6.8117 6.7674 6.81155C6.76673 6.8114 6.76605 6.81124 6.76538 6.81109C6.76471 6.81094 6.76404 6.81079 6.76337 6.81063C6.7627 6.81048 6.76203 6.81033 6.76135 6.81018C6.76068 6.81002 6.76001 6.80987 6.75934 6.80972C6.75867 6.80957 6.758 6.80941 6.75733 6.80926C6.75666 6.80911 6.75598 6.80896 6.75531 6.8088C6.75464 6.80865 6.75397 6.8085 6.7533 6.80834C6.75263 6.80819 6.75196 6.80804 6.75128 6.80789C6.75061 6.80773 6.74994 6.80758 6.74927 6.80743C6.7486 6.80728 6.74793 6.80712 6.74726 6.80697C6.74658 6.80682 6.74591 6.80667 6.74524 6.80651C6.74457 6.80636 6.7439 6.80621 6.74323 6.80606C6.74256 6.8059 6.74188 6.80575 6.74121 6.8056C6.74054 6.80545 6.73987 6.80529 6.7392 6.80514C6.73853 6.80499 6.73786 6.80484 6.73719 6.80468C6.73651 6.80453 6.73584 6.80438 6.73517 6.80422C6.7345 6.80407 6.73383 6.80392 6.73316 6.80377C6.73249 6.80361 6.73181 6.80346 6.73114 6.80331C6.73047 6.80316 6.7298 6.803 6.72913 6.80285C6.72846 6.8027 6.72779 6.80255 6.72711 6.80239C6.72644 6.80224 6.72577 6.80209 6.7251 6.80194C6.72443 6.80178 6.72376 6.80163 6.72309 6.80148C6.72241 6.80133 6.72174 6.80117 6.72107 6.80102C6.7204 6.80087 6.71973 6.80072 6.71906 6.80056C6.71839 6.80041 6.71771 6.80026 6.71704 6.80011C6.71637 6.79995 6.7157 6.7998 6.71503 6.79965C6.71436 6.79949 6.71369 6.79934 6.71302 6.79919C6.71234 6.79904 6.71167 6.79888 6.711 6.79873C6.71033 6.79858 6.70966 6.79843 6.70899 6.79827C6.70832 6.79812 6.70764 6.79797 6.70697 6.79782C6.7063 6.79766 6.70563 6.79751 6.70496 6.79736C6.70429 6.79721 6.70362 6.79705 6.70294 6.7969C6.70227 6.79675 6.7016 6.7966 6.70093 6.79644C6.70026 6.79629 6.69959 6.79614 6.69892 6.79599C6.69824 6.79583 6.69757 6.79568 6.6969 6.79553C6.69623 6.79537 6.69556 6.79522 6.69489 6.79507C6.69422 6.79492 6.69354 6.79476 6.69287 6.79461C6.6922 6.79446 6.69153 6.79431 6.69086 6.79415C6.69019 6.794 6.68952 6.79385 6.68885 6.7937C6.68817 6.79354 6.6875 6.79339 6.68683 6.79324C6.68616 6.79309 6.68549 6.79293 6.68482 6.79278C6.68415 6.79263 6.68347 6.79248 6.6828 6.79232C6.68213 6.79217 6.68146 6.79202 6.68079 6.79187C6.68012 6.79171 6.67945 6.79156 6.67877 6.79141C6.6781 6.79125 6.67743 6.7911 6.67676 6.79095C6.67609 6.7908 6.67542 6.79064 6.67475 6.79049L6.2315 8.74076C6.23218 8.74091 6.23285 8.74106 6.23352 8.74122C6.23419 8.74137 6.23486 8.74152 6.23553 8.74167C6.2362 8.74183 6.23688 8.74198 6.23755 8.74213C6.23822 8.74228 6.23889 8.74244 6.23956 8.74259C6.24023 8.74274 6.2409 8.74289 6.24157 8.74305C6.24225 8.7432 6.24292 8.74335 6.24359 8.7435C6.24426 8.74366 6.24493 8.74381 6.2456 8.74396C6.24627 8.74411 6.24695 8.74427 6.24762 8.74442C6.24829 8.74457 6.24896 8.74473 6.24963 8.74488C6.2503 8.74503 6.25097 8.74518 6.25165 8.74534C6.25232 8.74549 6.25299 8.74564 6.25366 8.74579C6.25433 8.74595 6.255 8.7461 6.25567 8.74625C6.25635 8.7464 6.25702 8.74656 6.25769 8.74671C6.25836 8.74686 6.25903 8.74701 6.2597 8.74717C6.26037 8.74732 6.26104 8.74747 6.26172 8.74762C6.26239 8.74778 6.26306 8.74793 6.26373 8.74808C6.2644 8.74823 6.26507 8.74839 6.26574 8.74854C6.26642 8.74869 6.26709 8.74885 6.26776 8.749C6.26843 8.74915 6.2691 8.7493 6.26977 8.74946C6.27044 8.74961 6.27112 8.74976 6.27179 8.74991C6.27246 8.75007 6.27313 8.75022 6.2738 8.75037C6.27447 8.75052 6.27514 8.75068 6.27582 8.75083C6.27649 8.75098 6.27716 8.75113 6.27783 8.75129C6.2785 8.75144 6.27917 8.75159 6.27984 8.75174C6.28052 8.7519 6.28119 8.75205 6.28186 8.7522C6.28253 8.75235 6.2832 8.75251 6.28387 8.75266C6.28454 8.75281 6.28521 8.75296 6.28589 8.75312C6.28656 8.75327 6.28723 8.75342 6.2879 8.75358C6.28857 8.75373 6.28924 8.75388 6.28991 8.75403C6.29059 8.75419 6.29126 8.75434 6.29193 8.75449C6.2926 8.75464 6.29327 8.7548 6.29394 8.75495C6.29461 8.7551 6.29529 8.75525 6.29596 8.75541C6.29663 8.75556 6.2973 8.75571 6.29797 8.75586C6.29864 8.75602 6.29931 8.75617 6.29999 8.75632C6.30066 8.75647 6.30133 8.75663 6.302 8.75678C6.30267 8.75693 6.30334 8.75708 6.30401 8.75724C6.30469 8.75739 6.30536 8.75754 6.30603 8.7577C6.3067 8.75785 6.30737 8.758 6.30804 8.75815C6.30871 8.75831 6.30938 8.75846 6.31006 8.75861C6.31073 8.75876 6.3114 8.75892 6.31207 8.75907C6.31274 8.75922 6.31341 8.75937 6.31408 8.75953C6.31476 8.75968 6.31543 8.75983 6.3161 8.75998C6.31677 8.76014 6.31744 8.76029 6.31811 8.76044C6.31878 8.76059 6.31946 8.76075 6.32013 8.7609C6.3208 8.76105 6.32147 8.7612 6.32214 8.76136C6.32281 8.76151 6.32348 8.76166 6.32416 8.76182C6.32483 8.76197 6.3255 8.76212 6.32617 8.76227C6.32684 8.76243 6.32751 8.76258 6.32818 8.76273C6.32886 8.76288 6.32953 8.76304 6.3302 8.76319C6.33087 8.76334 6.33154 8.76349 6.33221 8.76365C6.33288 8.7638 6.33355 8.76395 6.33423 8.7641C6.3349 8.76426 6.33557 8.76441 6.33624 8.76456C6.33691 8.76471 6.33758 8.76487 6.33825 8.76502C6.33893 8.76517 6.3396 8.76532 6.34027 8.76548C6.34094 8.76563 6.34161 8.76578 6.34228 8.76593C6.34295 8.76609 6.34363 8.76624 6.3443 8.76639C6.34497 8.76655 6.34564 8.7667 6.34631 8.76685C6.34698 8.767 6.34765 8.76716 6.34833 8.76731C6.349 8.76746 6.34967 8.76761 6.35034 8.76777C6.35101 8.76792 6.35168 8.76807 6.35235 8.76822C6.35302 8.76838 6.3537 8.76853 6.35437 8.76868C6.35504 8.76883 6.35571 8.76899 6.35638 8.76914C6.35705 8.76929 6.35772 8.76944 6.3584 8.7696C6.35907 8.76975 6.35974 8.7699 6.36041 8.77005C6.36108 8.77021 6.36175 8.77036 6.36242 8.77051C6.3631 8.77067 6.36377 8.77082 6.36444 8.77097C6.36511 8.77112 6.36578 8.77128 6.36645 8.77143C6.36712 8.77158 6.3678 8.77173 6.36847 8.77189C6.36914 8.77204 6.36981 8.77219 6.37048 8.77234C6.37115 8.7725 6.37182 8.77265 6.3725 8.7728C6.37317 8.77295 6.37384 8.77311 6.37451 8.77326C6.37518 8.77341 6.37585 8.77356 6.37652 8.77372C6.37719 8.77387 6.37787 8.77402 6.37854 8.77417C6.37921 8.77433 6.37988 8.77448 6.38055 8.77463C6.38122 8.77479 6.38189 8.77494 6.38257 8.77509C6.38324 8.77524 6.38391 8.7754 6.38458 8.77555C6.38525 8.7757 6.38592 8.77585 6.38659 8.77601C6.38727 8.77616 6.38794 8.77631 6.38861 8.77646C6.38928 8.77662 6.38995 8.77677 6.39062 8.77692C6.39129 8.77707 6.39197 8.77723 6.39264 8.77738C6.39331 8.77753 6.39398 8.77768 6.39465 8.77784C6.39532 8.77799 6.39599 8.77814 6.39667 8.77829C6.39734 8.77845 6.39801 8.7786 6.39868 8.77875C6.39935 8.7789 6.40002 8.77906 6.40069 8.77921C6.40136 8.77936 6.40204 8.77952 6.40271 8.77967C6.40338 8.77982 6.40405 8.77997 6.40472 8.78013C6.40539 8.78028 6.40606 8.78043 6.40674 8.78058C6.40741 8.78074 6.40808 8.78089 6.40875 8.78104C6.40942 8.78119 6.41009 8.78135 6.41076 8.7815C6.41144 8.78165 6.41211 8.7818 6.41278 8.78196C6.41345 8.78211 6.41412 8.78226 6.41479 8.78241C6.41546 8.78257 6.41614 8.78272 6.41681 8.78287C6.41748 8.78302 6.41815 8.78318 6.41882 8.78333C6.41949 8.78348 6.42016 8.78364 6.42084 8.78379C6.42151 8.78394 6.42218 8.78409 6.42285 8.78425C6.42352 8.7844 6.42419 8.78455 6.42486 8.7847C6.42553 8.78486 6.42621 8.78501 6.42688 8.78516C6.42755 8.78531 6.42822 8.78547 6.42889 8.78562C6.42956 8.78577 6.43023 8.78592 6.43091 8.78608C6.43158 8.78623 6.43225 8.78638 6.43292 8.78653C6.43359 8.78669 6.43426 8.78684 6.43493 8.78699C6.43561 8.78714 6.43628 8.7873 6.43695 8.78745C6.43762 8.7876 6.43829 8.78776 6.43896 8.78791C6.43963 8.78806 6.44031 8.78821 6.44098 8.78837C6.44165 8.78852 6.44232 8.78867 6.44299 8.78882C6.44366 8.78898 6.44433 8.78913 6.445 8.78928C6.44568 8.78943 6.44635 8.78959 6.44702 8.78974C6.44769 8.78989 6.44836 8.79004 6.44903 8.7902C6.4497 8.79035 6.45038 8.7905 6.45105 8.79065C6.45172 8.79081 6.45239 8.79096 6.45306 8.79111C6.45373 8.79126 6.4544 8.79142 6.45508 8.79157C6.45575 8.79172 6.45642 8.79187 6.45709 8.79203C6.45776 8.79218 6.45843 8.79233 6.4591 8.79249C6.45978 8.79264 6.46045 8.79279 6.46112 8.79294C6.46179 8.7931 6.46246 8.79325 6.46313 8.7934C6.4638 8.79355 6.46448 8.79371 6.46515 8.79386C6.46582 8.79401 6.46649 8.79416 6.46716 8.79432C6.46783 8.79447 6.4685 8.79462 6.46917 8.79477C6.46985 8.79493 6.47052 8.79508 6.47119 8.79523C6.47186 8.79538 6.47253 8.79554 6.4732 8.79569C6.47387 8.79584 6.47455 8.79599 6.47522 8.79615C6.47589 8.7963 6.47656 8.79645 6.47723 8.79661C6.4779 8.79676 6.47857 8.79691 6.47925 8.79706C6.47992 8.79722 6.48059 8.79737 6.48126 8.79752C6.48193 8.79767 6.4826 8.79783 6.48327 8.79798C6.48395 8.79813 6.48462 8.79828 6.48529 8.79844C6.48596 8.79859 6.48663 8.79874 6.4873 8.79889C6.48797 8.79905 6.48865 8.7992 6.48932 8.79935C6.48999 8.7995 6.49066 8.79966 6.49133 8.79981C6.492 8.79996 6.49267 8.80011 6.49334 8.80027C6.49402 8.80042 6.49469 8.80057 6.49536 8.80072C6.49603 8.80088 6.4967 8.80103 6.49737 8.80118C6.49804 8.80134 6.49872 8.80149 6.49939 8.80164C6.50006 8.80179 6.50073 8.80195 6.5014 8.8021C6.50207 8.80225 6.50274 8.8024 6.50342 8.80256C6.50409 8.80271 6.50476 8.80286 6.50543 8.80301C6.5061 8.80317 6.50677 8.80332 6.50744 8.80347C6.50812 8.80362 6.50879 8.80378 6.50946 8.80393C6.51013 8.80408 6.5108 8.80423 6.51147 8.80439C6.51214 8.80454 6.51281 8.80469 6.51349 8.80484C6.51416 8.805 6.51483 8.80515 6.5155 8.8053C6.51617 8.80546 6.51684 8.80561 6.51751 8.80576C6.51819 8.80591 6.51886 8.80607 6.51953 8.80622C6.5202 8.80637 6.52087 8.80652 6.52154 8.80668C6.52221 8.80683 6.52289 8.80698 6.52356 8.80713C6.52423 8.80729 6.5249 8.80744 6.52557 8.80759C6.52624 8.80774 6.52691 8.8079 6.52759 8.80805C6.52826 8.8082 6.52893 8.80835 6.5296 8.80851C6.53027 8.80866 6.53094 8.80881 6.53161 8.80896C6.53229 8.80912 6.53296 8.80927 6.53363 8.80942C6.5343 8.80958 6.53497 8.80973 6.53564 8.80988C6.53631 8.81003 6.53698 8.81019 6.53766 8.81034C6.53833 8.81049 6.539 8.81064 6.53967 8.8108C6.54034 8.81095 6.54101 8.8111 6.54168 8.81125C6.54236 8.81141 6.54303 8.81156 6.5437 8.81171C6.54437 8.81186 6.54504 8.81202 6.54571 8.81217C6.54638 8.81232 6.54706 8.81247 6.54773 8.81263C6.5484 8.81278 6.54907 8.81293 6.54974 8.81308C6.55041 8.81324 6.55108 8.81339 6.55176 8.81354C6.55243 8.81369 6.5531 8.81385 6.55377 8.814C6.55444 8.81415 6.55511 8.81431 6.55578 8.81446C6.55646 8.81461 6.55713 8.81476 6.5578 8.81492C6.55847 8.81507 6.55914 8.81522 6.55981 8.81537C6.56048 8.81553 6.56115 8.81568 6.56183 8.81583C6.5625 8.81598 6.56317 8.81614 6.56384 8.81629C6.56451 8.81644 6.56518 8.81659 6.56585 8.81675C6.56653 8.8169 6.5672 8.81705 6.56787 8.8172C6.56854 8.81736 6.56921 8.81751 6.56988 8.81766C6.57055 8.81781 6.57123 8.81797 6.5719 8.81812C6.57257 8.81827 6.57324 8.81843 6.57391 8.81858C6.57458 8.81873 6.57525 8.81888 6.57593 8.81904C6.5766 8.81919 6.57727 8.81934 6.57794 8.81949C6.57861 8.81965 6.57928 8.8198 6.57995 8.81995C6.58063 8.8201 6.5813 8.82026 6.58197 8.82041C6.58264 8.82056 6.58331 8.82071 6.58398 8.82087C6.58465 8.82102 6.58532 8.82117 6.586 8.82132C6.58667 8.82148 6.58734 8.82163 6.58801 8.82178C6.58868 8.82193 6.58935 8.82209 6.59002 8.82224C6.5907 8.82239 6.59137 8.82255 6.59204 8.8227C6.59271 8.82285 6.59338 8.823 6.59405 8.82316C6.59472 8.82331 6.5954 8.82346 6.59607 8.82361C6.59674 8.82377 6.59741 8.82392 6.59808 8.82407C6.59875 8.82422 6.59942 8.82438 6.6001 8.82453C6.60077 8.82468 6.60144 8.82483 6.60211 8.82499C6.60278 8.82514 6.60345 8.82529 6.60412 8.82544C6.60479 8.8256 6.60547 8.82575 6.60614 8.8259C6.60681 8.82605 6.60748 8.82621 6.60815 8.82636C6.60882 8.82651 6.60949 8.82666 6.61017 8.82682C6.61084 8.82697 6.61151 8.82712 6.61218 8.82728C6.61285 8.82743 6.61352 8.82758 6.61419 8.82773C6.61487 8.82789 6.61554 8.82804 6.61621 8.82819C6.61688 8.82834 6.61755 8.8285 6.61822 8.82865C6.61889 8.8288 6.61957 8.82895 6.62024 8.82911C6.62091 8.82926 6.62158 8.82941 6.62225 8.82956C6.62292 8.82972 6.62359 8.82987 6.62427 8.83002C6.62494 8.83017 6.62561 8.83033 6.62628 8.83048C6.62695 8.83063 6.62762 8.83078 6.62829 8.83094C6.62896 8.83109 6.62964 8.83124 6.63031 8.8314C6.63098 8.83155 6.63165 8.8317 6.63232 8.83185C6.63299 8.83201 6.63366 8.83216 6.63434 8.83231C6.63501 8.83246 6.63568 8.83262 6.63635 8.83277C6.63702 8.83292 6.63769 8.83307 6.63836 8.83323C6.63904 8.83338 6.63971 8.83353 6.64038 8.83368C6.64105 8.83384 6.64172 8.83399 6.64239 8.83414C6.64306 8.83429 6.64374 8.83445 6.64441 8.8346C6.64508 8.83475 6.64575 8.8349 6.64642 8.83506C6.64709 8.83521 6.64776 8.83536 6.64844 8.83552C6.64911 8.83567 6.64978 8.83582 6.65045 8.83597C6.65112 8.83613 6.65179 8.83628 6.65246 8.83643C6.65313 8.83658 6.65381 8.83674 6.65448 8.83689C6.65515 8.83704 6.65582 8.83719 6.65649 8.83735C6.65716 8.8375 6.65783 8.83765 6.65851 8.8378C6.65918 8.83796 6.65985 8.83811 6.66052 8.83826C6.66119 8.83841 6.66186 8.83857 6.66253 8.83872C6.66321 8.83887 6.66388 8.83902 6.66455 8.83918C6.66522 8.83933 6.66589 8.83948 6.66656 8.83963C6.66723 8.83979 6.66791 8.83994 6.66858 8.84009C6.66925 8.84025 6.66992 8.8404 6.67059 8.84055C6.67126 8.8407 6.67193 8.84086 6.67261 8.84101C6.67328 8.84116 6.67395 8.84131 6.67462 8.84147C6.67529 8.84162 6.67596 8.84177 6.67663 8.84192C6.6773 8.84208 6.67798 8.84223 6.67865 8.84238C6.67932 8.84253 6.67999 8.84269 6.68066 8.84284C6.68133 8.84299 6.682 8.84314 6.68268 8.8433C6.68335 8.84345 6.68402 8.8436 6.68469 8.84375C6.68536 8.84391 6.68603 8.84406 6.6867 8.84421C6.68738 8.84437 6.68805 8.84452 6.68872 8.84467C6.68939 8.84482 6.69006 8.84498 6.69073 8.84513C6.6914 8.84528 6.69208 8.84543 6.69275 8.84559C6.69342 8.84574 6.69409 8.84589 6.69476 8.84604C6.69543 8.8462 6.6961 8.84635 6.69677 8.8465C6.69745 8.84665 6.69812 8.84681 6.69879 8.84696C6.69946 8.84711 6.70013 8.84726 6.7008 8.84742C6.70147 8.84757 6.70215 8.84772 6.70282 8.84787C6.70349 8.84803 6.70416 8.84818 6.70483 8.84833C6.7055 8.84848 6.70617 8.84864 6.70685 8.84879C6.70752 8.84894 6.70819 8.8491 6.70886 8.84925C6.70953 8.8494 6.7102 8.84955 6.71087 8.84971C6.71155 8.84986 6.71222 8.85001 6.71289 8.85016C6.71356 8.85032 6.71423 8.85047 6.7149 8.85062C6.71557 8.85077 6.71625 8.85093 6.71692 8.85108C6.71759 8.85123 6.71826 8.85138 6.71893 8.85154C6.7196 8.85169 6.72027 8.85184 6.72094 8.85199C6.72162 8.85215 6.72229 8.8523 6.72296 8.85245C6.72363 8.8526 6.7243 8.85276 6.72497 8.85291C6.72564 8.85306 6.72632 8.85322 6.72699 8.85337C6.72766 8.85352 6.72833 8.85367 6.729 8.85383C6.72967 8.85398 6.73034 8.85413 6.73102 8.85428C6.73169 8.85444 6.73236 8.85459 6.73303 8.85474C6.7337 8.85489 6.73437 8.85505 6.73504 8.8552C6.73572 8.85535 6.73639 8.8555 6.73706 8.85566C6.73773 8.85581 6.7384 8.85596 6.73907 8.85611C6.73974 8.85627 6.74042 8.85642 6.74109 8.85657C6.74176 8.85672 6.74243 8.85688 6.7431 8.85703C6.74377 8.85718 6.74444 8.85734 6.74511 8.85749C6.74579 8.85764 6.74646 8.85779 6.74713 8.85795C6.7478 8.8581 6.74847 8.85825 6.74914 8.8584C6.74981 8.85856 6.75049 8.85871 6.75116 8.85886C6.75183 8.85901 6.7525 8.85917 6.75317 8.85932C6.75384 8.85947 6.75451 8.85962 6.75519 8.85978C6.75586 8.85993 6.75653 8.86008 6.7572 8.86023C6.75787 8.86039 6.75854 8.86054 6.75921 8.86069C6.75989 8.86084 6.76056 8.861 6.76123 8.86115C6.7619 8.8613 6.76257 8.86145 6.76324 8.86161C6.76391 8.86176 6.76459 8.86191 6.76526 8.86207C6.76593 8.86222 6.7666 8.86237 6.76727 8.86252C6.76794 8.86268 6.76861 8.86283 6.76928 8.86298C6.76996 8.86313 6.77063 8.86329 6.7713 8.86344C6.77197 8.86359 6.77264 8.86374 6.77331 8.8639C6.77398 8.86405 6.77466 8.8642 6.77533 8.86435C6.776 8.86451 6.77667 8.86466 6.77734 8.86481C6.77801 8.86496 6.77868 8.86512 6.77936 8.86527C6.78003 8.86542 6.7807 8.86557 6.78137 8.86573C6.78204 8.86588 6.78271 8.86603 6.78338 8.86619C6.78406 8.86634 6.78473 8.86649 6.7854 8.86664C6.78607 8.8668 6.78674 8.86695 6.78741 8.8671C6.78808 8.86725 6.78875 8.86741 6.78943 8.86756C6.7901 8.86771 6.79077 8.86786 6.79144 8.86802C6.79211 8.86817 6.79278 8.86832 6.79345 8.86847C6.79413 8.86863 6.7948 8.86878 6.79547 8.86893C6.79614 8.86908 6.79681 8.86924 6.79748 8.86939C6.79815 8.86954 6.79883 8.86969 6.7995 8.86985C6.80017 8.87 6.80084 8.87015 6.80151 8.87031C6.80218 8.87046 6.80285 8.87061 6.80353 8.87076C6.8042 8.87092 6.80487 8.87107 6.80554 8.87122C6.80621 8.87137 6.80688 8.87153 6.80755 8.87168C6.80823 8.87183 6.8089 8.87198 6.80957 8.87214C6.81024 8.87229 6.81091 8.87244 6.81158 8.87259C6.81225 8.87275 6.81292 8.8729 6.8136 8.87305C6.81427 8.8732 6.81494 8.87336 6.81561 8.87351C6.81628 8.87366 6.81695 8.87381 6.81762 8.87397C6.8183 8.87412 6.81897 8.87427 6.81964 8.87442C6.82031 8.87458 6.82098 8.87473 6.82165 8.87488C6.82232 8.87504 6.823 8.87519 6.82367 8.87534C6.82434 8.87549 6.82501 8.87565 6.82568 8.8758C6.82635 8.87595 6.82702 8.8761 6.8277 8.87626C6.82837 8.87641 6.82904 8.87656 6.82971 8.87671C6.83038 8.87687 6.83105 8.87702 6.83172 8.87717C6.8324 8.87732 6.83307 8.87748 6.83374 8.87763C6.83441 8.87778 6.83508 8.87793 6.83575 8.87809C6.83642 8.87824 6.83709 8.87839 6.83777 8.87854C6.83844 8.8787 6.83911 8.87885 6.83978 8.879C6.84045 8.87916 6.84112 8.87931 6.84179 8.87946C6.84247 8.87961 6.84314 8.87977 6.84381 8.87992C6.84448 8.88007 6.84515 8.88022 6.84582 8.88038C6.84649 8.88053 6.84717 8.88068 6.84784 8.88083C6.84851 8.88099 6.84918 8.88114 6.84985 8.88129C6.85052 8.88144 6.85119 8.8816 6.85187 8.88175C6.85254 8.8819 6.85321 8.88205 6.85388 8.88221C6.85455 8.88236 6.85522 8.88251 6.85589 8.88266C6.85656 8.88282 6.85724 8.88297 6.85791 8.88312C6.85858 8.88328 6.85925 8.88343 6.85992 8.88358C6.86059 8.88373 6.86126 8.88389 6.86194 8.88404C6.86261 8.88419 6.86328 8.88434 6.86395 8.8845C6.86462 8.88465 6.86529 8.8848 6.86596 8.88495C6.86664 8.88511 6.86731 8.88526 6.86798 8.88541C6.86865 8.88556 6.86932 8.88572 6.86999 8.88587C6.87066 8.88602 6.87134 8.88617 6.87201 8.88633C6.87268 8.88648 6.87335 8.88663 6.87402 8.88678C6.87469 8.88694 6.87536 8.88709 6.87604 8.88724C6.87671 8.88739 6.87738 8.88755 6.87805 8.8877C6.87872 8.88785 6.87939 8.88801 6.88006 8.88816C6.88073 8.88831 6.88141 8.88846 6.88208 8.88862C6.88275 8.88877 6.88342 8.88892 6.88409 8.88907C6.88476 8.88923 6.88543 8.88938 6.88611 8.88953C6.88678 8.88968 6.88745 8.88984 6.88812 8.88999C6.88879 8.89014 6.88946 8.89029 6.89013 8.89045C6.89081 8.8906 6.89148 8.89075 6.89215 8.8909C6.89282 8.89106 6.89349 8.89121 6.89416 8.89136C6.89483 8.89151 6.89551 8.89167 6.89618 8.89182C6.89685 8.89197 6.89752 8.89213 6.89819 8.89228C6.89886 8.89243 6.89953 8.89258 6.90021 8.89274C6.90088 8.89289 6.90155 8.89304 6.90222 8.89319C6.90289 8.89335 6.90356 8.8935 6.90423 8.89365C6.9049 8.8938 6.90558 8.89396 6.90625 8.89411C6.90692 8.89426 6.90759 8.89441 6.90826 8.89457C6.90893 8.89472 6.9096 8.89487 6.91028 8.89502C6.91095 8.89518 6.91162 8.89533 6.91229 8.89548C6.91296 8.89563 6.91363 8.89579 6.9143 8.89594C6.91498 8.89609 6.91565 8.89625 6.91632 8.8964C6.91699 8.89655 6.91766 8.8967 6.91833 8.89686C6.919 8.89701 6.91968 8.89716 6.92035 8.89731C6.92102 8.89747 6.92169 8.89762 6.92236 8.89777C6.92303 8.89792 6.9237 8.89808 6.92438 8.89823C6.92505 8.89838 6.92572 8.89853 6.92639 8.89869C6.92706 8.89884 6.92773 8.89899 6.9284 8.89914C6.92907 8.8993 6.92975 8.89945 6.93042 8.8996C6.93109 8.89975 6.93176 8.89991 6.93243 8.90006C6.9331 8.90021 6.93377 8.90036 6.93445 8.90052C6.93512 8.90067 6.93579 8.90082 6.93646 8.90098C6.93713 8.90113 6.9378 8.90128 6.93847 8.90143C6.93915 8.90159 6.93982 8.90174 6.94049 8.90189C6.94116 8.90204 6.94183 8.9022 6.9425 8.90235C6.94317 8.9025 6.94385 8.90265 6.94452 8.90281C6.94519 8.90296 6.94586 8.90311 6.94653 8.90326C6.9472 8.90342 6.94787 8.90357 6.94854 8.90372C6.94922 8.90387 6.94989 8.90403 6.95056 8.90418C6.95123 8.90433 6.9519 8.90448 6.95257 8.90464C6.95324 8.90479 6.95392 8.90494 6.95459 8.9051C6.95526 8.90525 6.95593 8.9054 6.9566 8.90555C6.95727 8.90571 6.95794 8.90586 6.95862 8.90601C6.95929 8.90616 6.95996 8.90632 6.96063 8.90647C6.9613 8.90662 6.96197 8.90677 6.96264 8.90693C6.96332 8.90708 6.96399 8.90723 6.96466 8.90738C6.96533 8.90754 6.966 8.90769 6.96667 8.90784C6.96734 8.90799 6.96802 8.90815 6.96869 8.9083C6.96936 8.90845 6.97003 8.9086 6.9707 8.90876C6.97137 8.90891 6.97204 8.90906 6.97271 8.90921C6.97339 8.90937 6.97406 8.90952 6.97473 8.90967C6.9754 8.90983 6.97607 8.90998 6.97674 8.91013C6.97741 8.91028 6.97809 8.91044 6.97876 8.91059C6.97943 8.91074 6.9801 8.91089 6.98077 8.91105C6.98144 8.9112 6.98211 8.91135 6.98279 8.9115C6.98346 8.91166 6.98413 8.91181 6.9848 8.91196C6.98547 8.91211 6.98614 8.91227 6.98681 8.91242C6.98749 8.91257 6.98816 8.91272 6.98883 8.91288C6.9895 8.91303 6.99017 8.91318 6.99084 8.91333C6.99151 8.91349 6.99219 8.91364 6.99286 8.91379C6.99353 8.91395 6.9942 8.9141 6.99487 8.91425C6.99554 8.9144 6.99621 8.91456 6.99688 8.91471C6.99756 8.91486 6.99823 8.91501 6.9989 8.91517C6.99957 8.91532 7.00024 8.91547 7.00091 8.91562C7.00158 8.91578 7.00226 8.91593 7.00293 8.91608C7.0036 8.91623 7.00427 8.91639 7.00494 8.91654C7.00561 8.91669 7.00628 8.91684 7.00696 8.917C7.00763 8.91715 7.0083 8.9173 7.00897 8.91745C7.00964 8.91761 7.01031 8.91776 7.01098 8.91791C7.01166 8.91807 7.01233 8.91822 7.013 8.91837C7.01367 8.91852 7.01434 8.91868 7.01501 8.91883C7.01568 8.91898 7.01636 8.91913 7.01703 8.91929C7.0177 8.91944 7.01837 8.91959 7.01904 8.91974C7.01971 8.9199 7.02038 8.92005 7.02105 8.9202C7.02173 8.92035 7.0224 8.92051 7.02307 8.92066C7.02374 8.92081 7.02441 8.92096 7.02508 8.92112C7.02575 8.92127 7.02643 8.92142 7.0271 8.92157C7.02777 8.92173 7.02844 8.92188 7.02911 8.92203C7.02978 8.92218 7.03045 8.92234 7.03113 8.92249C7.0318 8.92264 7.03247 8.9228 7.03314 8.92295C7.03381 8.9231 7.03448 8.92325 7.03515 8.92341C7.03583 8.92356 7.0365 8.92371 7.03717 8.92386C7.03784 8.92402 7.03851 8.92417 7.03918 8.92432C7.03985 8.92447 7.04052 8.92463 7.0412 8.92478C7.04187 8.92493 7.04254 8.92508 7.04321 8.92524C7.04388 8.92539 7.04455 8.92554 7.04522 8.92569C7.0459 8.92585 7.04657 8.926 7.04724 8.92615C7.04791 8.9263 7.04858 8.92646 7.04925 8.92661C7.04992 8.92676 7.0506 8.92692 7.05127 8.92707C7.05194 8.92722 7.05261 8.92737 7.05328 8.92753C7.05395 8.92768 7.05462 8.92783 7.0553 8.92798C7.05597 8.92814 7.05664 8.92829 7.05731 8.92844C7.05798 8.92859 7.05865 8.92875 7.05932 8.9289C7.06 8.92905 7.06067 8.9292 7.06134 8.92936C7.06201 8.92951 7.06268 8.92966 7.06335 8.92981C7.06402 8.92997 7.06469 8.93012 7.06537 8.93027C7.06604 8.93042 7.06671 8.93058 7.06738 8.93073C7.06805 8.93088 7.06872 8.93104 7.06939 8.93119C7.07007 8.93134 7.07074 8.93149 7.07141 8.93165C7.07208 8.9318 7.07275 8.93195 7.07342 8.9321C7.07409 8.93226 7.07477 8.93241 7.07544 8.93256C7.07611 8.93271 7.07678 8.93287 7.07745 8.93302C7.07812 8.93317 7.07879 8.93332 7.07947 8.93348C7.08014 8.93363 7.08081 8.93378 7.08148 8.93393C7.08215 8.93409 7.08282 8.93424 7.08349 8.93439C7.08417 8.93454 7.08484 8.9347 7.08551 8.93485C7.08618 8.935 7.08685 8.93515 7.08752 8.93531C7.08819 8.93546 7.08886 8.93561 7.08954 8.93577C7.09021 8.93592 7.09088 8.93607 7.09155 8.93622C7.09222 8.93638 7.09289 8.93653 7.09356 8.93668C7.09424 8.93683 7.09491 8.93699 7.09558 8.93714C7.09625 8.93729 7.09692 8.93744 7.09759 8.9376C7.09826 8.93775 7.09894 8.9379 7.09961 8.93805C7.10028 8.93821 7.10095 8.93836 7.10162 8.93851C7.10229 8.93866 7.10296 8.93882 7.10364 8.93897C7.10431 8.93912 7.10498 8.93927 7.10565 8.93943C7.10632 8.93958 7.10699 8.93973 7.10766 8.93989C7.10834 8.94004 7.10901 8.94019 7.10968 8.94034C7.11035 8.9405 7.11102 8.94065 7.11169 8.9408C7.11236 8.94095 7.11303 8.94111 7.11371 8.94126C7.11438 8.94141 7.11505 8.94156 7.11572 8.94172C7.11639 8.94187 7.11706 8.94202 7.11773 8.94217C7.11841 8.94233 7.11908 8.94248 7.11975 8.94263C7.12042 8.94278 7.12109 8.94294 7.12176 8.94309C7.12243 8.94324 7.12311 8.94339 7.12378 8.94355C7.12445 8.9437 7.12512 8.94385 7.12579 8.94401C7.12646 8.94416 7.12713 8.94431 7.12781 8.94446C7.12848 8.94462 7.12915 8.94477 7.12982 8.94492C7.13049 8.94507 7.13116 8.94523 7.13183 8.94538C7.1325 8.94553 7.13318 8.94568 7.13385 8.94584C7.13452 8.94599 7.13519 8.94614 7.13586 8.94629C7.13653 8.94645 7.1372 8.9466 7.13788 8.94675C7.13855 8.9469 7.13922 8.94706 7.13989 8.94721C7.14056 8.94736 7.14123 8.94751 7.1419 8.94767C7.14258 8.94782 7.14325 8.94797 7.14392 8.94812C7.14459 8.94828 7.14526 8.94843 7.14593 8.94858C7.1466 8.94874 7.14728 8.94889 7.14795 8.94904C7.14862 8.94919 7.14929 8.94935 7.14996 8.9495C7.15063 8.94965 7.1513 8.9498 7.15198 8.94996C7.15265 8.95011 7.15332 8.95026 7.15399 8.95041C7.15466 8.95057 7.15533 8.95072 7.156 8.95087C7.15667 8.95102 7.15735 8.95118 7.15802 8.95133C7.15869 8.95148 7.15936 8.95163 7.16003 8.95179C7.1607 8.95194 7.16137 8.95209 7.16205 8.95224C7.16272 8.9524 7.16339 8.95255 7.16406 8.9527C7.16473 8.95286 7.1654 8.95301 7.16607 8.95316C7.16675 8.95331 7.16742 8.95347 7.16809 8.95362C7.16876 8.95377 7.16943 8.95392 7.1701 8.95408C7.17077 8.95423 7.17145 8.95438 7.17212 8.95453C7.17279 8.95469 7.17346 8.95484 7.17413 8.95499C7.1748 8.95514 7.17547 8.9553 7.17615 8.95545C7.17682 8.9556 7.17749 8.95575 7.17816 8.95591C7.17883 8.95606 7.1795 8.95621 7.18017 8.95636C7.18084 8.95652 7.18152 8.95667 7.18219 8.95682C7.18286 8.95697 7.18353 8.95713 7.1842 8.95728C7.18487 8.95743 7.18554 8.95759 7.18622 8.95774C7.18689 8.95789 7.18756 8.95804 7.18823 8.9582C7.1889 8.95835 7.18957 8.9585 7.19024 8.95865C7.19092 8.95881 7.19159 8.95896 7.19226 8.95911C7.19293 8.95926 7.1936 8.95942 7.19427 8.95957C7.19494 8.95972 7.19562 8.95987 7.19629 8.96003C7.19696 8.96018 7.19763 8.96033 7.1983 8.96048C7.19897 8.96064 7.19964 8.96079 7.20031 8.96094C7.20099 8.96109 7.20166 8.96125 7.20233 8.9614C7.203 8.96155 7.20367 8.96171 7.20434 8.96186C7.20501 8.96201 7.20569 8.96216 7.20636 8.96232C7.20703 8.96247 7.2077 8.96262 7.20837 8.96277C7.20904 8.96293 7.20971 8.96308 7.21039 8.96323C7.21106 8.96338 7.21173 8.96354 7.2124 8.96369C7.21307 8.96384 7.21374 8.96399 7.21441 8.96415C7.21509 8.9643 7.21576 8.96445 7.21643 8.9646C7.2171 8.96476 7.21777 8.96491 7.21844 8.96506C7.21911 8.96521 7.21979 8.96537 7.22046 8.96552C7.22113 8.96567 7.2218 8.96583 7.22247 8.96598C7.22314 8.96613 7.22381 8.96628 7.22448 8.96644C7.22516 8.96659 7.22583 8.96674 7.2265 8.96689C7.22717 8.96705 7.22784 8.9672 7.22851 8.96735C7.22918 8.9675 7.22986 8.96766 7.23053 8.96781C7.2312 8.96796 7.23187 8.96811 7.23254 8.96827C7.23321 8.96842 7.23388 8.96857 7.23456 8.96872C7.23523 8.96888 7.2359 8.96903 7.23657 8.96918C7.23724 8.96933 7.23791 8.96949 7.23858 8.96964C7.23926 8.96979 7.23993 8.96994 7.2406 8.9701C7.24127 8.97025 7.24194 8.9704 7.24261 8.97056C7.24328 8.97071 7.24396 8.97086 7.24463 8.97101C7.2453 8.97117 7.24597 8.97132 7.24664 8.97147C7.24731 8.97162 7.24798 8.97178 7.24865 8.97193C7.24933 8.97208 7.25 8.97223 7.25067 8.97239C7.25134 8.97254 7.25201 8.97269 7.25268 8.97284C7.25335 8.973 7.25403 8.97315 7.2547 8.9733C7.25537 8.97345 7.25604 8.97361 7.25671 8.97376C7.25738 8.97391 7.25805 8.97406 7.25873 8.97422C7.2594 8.97437 7.26007 8.97452 7.26074 8.97468C7.26141 8.97483 7.26208 8.97498 7.26275 8.97513L7.706 7.02487ZM6.72785 6.8041C6.44949 6.72457 6.23734 6.63908 6.07996 6.55515L5.13879 8.31985C5.45016 8.48592 5.80051 8.61918 6.1784 8.72715L6.72785 6.8041ZM6.07996 6.55515C5.94021 6.48061 5.89952 6.42792 5.89576 6.42267C5.8948 6.42132 5.8991 6.42736 5.90285 6.43912C5.90659 6.45082 5.90625 6.4571 5.90625 6.45312H3.90625C3.90625 7.34443 4.46087 7.95829 5.13879 8.31985L6.07996 6.55515ZM5.90625 6.45312C5.90625 5.77927 6.03136 5.54595 6.06212 5.50751L4.50038 4.25812C4.03114 4.84467 3.90625 5.65823 3.90625 6.45312H5.90625ZM4.95273 5.82731C5.25846 5.93365 5.64752 5.98764 6.05031 6.02019C6.47389 6.05442 6.9934 6.07031 7.60156 6.07031V4.07031C7.02223 4.07031 6.56126 4.05496 6.2114 4.02669C5.84076 3.99674 5.66341 3.95697 5.60977 3.93832L4.95273 5.82731ZM7.60156 6.07031H10.6484V4.07031H7.60156V6.07031ZM10.6769 6.06991L18.9035 5.83553L18.8465 3.83634L10.62 4.07072L10.6769 6.06991ZM18.8982 5.83567L19.9061 5.81223L19.8596 3.81277L18.8518 3.83621L18.8982 5.83567ZM19.8828 5.8125C24.6072 5.8125 27.9606 6.66174 30.1038 8.20256L31.2712 6.57869C28.6331 4.68201 24.7834 3.8125 19.8828 3.8125V5.8125ZM30.1073 8.20508C32.2166 9.70783 33.2734 11.8008 33.2734 14.6094H35.2734C35.2734 11.1992 33.9396 8.47967 31.2677 6.57617L30.1073 8.20508ZM33.2734 14.6094C33.2734 16.7012 32.5985 18.6288 31.21 20.4182L32.79 21.6443C34.4327 19.5274 35.2734 17.1738 35.2734 14.6094H33.2734ZM31.2103 20.4177C29.6742 22.3948 27.5463 23.7521 24.7659 24.4692L25.2653 26.4058C28.4224 25.5916 30.9508 24.0114 32.7897 21.6448L31.2103 20.4177ZM24.4464 26.2597C25.1076 26.7174 25.9468 27.6281 26.9572 29.0978L28.6053 27.9647C27.5532 26.4344 26.5486 25.2826 25.5848 24.6153L24.4464 26.2597ZM26.9558 29.0957L29.4402 32.7286L31.0911 31.5996L28.6067 27.9668L26.9558 29.0957ZM29.4412 32.7301C30.6278 34.4581 31.7461 35.8048 32.799 36.7298C33.8319 37.6372 34.928 38.25 36.0547 38.25V36.25C35.6502 36.25 35.0158 36.0151 34.119 35.2273C33.2421 34.4569 32.2316 33.2606 31.09 31.598L29.4412 32.7301ZM36.0547 38.25C36.6699 38.25 37.2488 38.1953 37.7129 38.0243L37.0215 36.1476C36.8919 36.1954 36.5957 36.25 36.0547 36.25V38.25ZM37.7386 38.0144L38.3245 37.78L37.5817 35.9231L36.9958 36.1575L37.7386 38.0144ZM38.3042 37.7879C38.2996 37.7896 38.3186 37.7812 38.375 37.7812V35.7812C38.1189 35.7812 37.8566 35.8197 37.602 35.9152L38.3042 37.7879ZM38.375 37.7812C38.1732 37.7812 38.0457 37.6982 38.0092 37.6704C37.9772 37.6461 37.9917 37.648 38.0431 37.7228L39.6912 36.5897C39.497 36.3073 39.0709 35.7812 38.375 35.7812V37.7812ZM38.0608 37.7476C38.0972 37.7973 38.125 37.8598 38.125 37.9766H40.125C40.125 37.4683 39.9809 36.984 39.6736 36.5649L38.0608 37.7476ZM38.125 37.9766C38.125 38.0239 38.0968 38.212 37.8718 38.5826L39.5813 39.6205C39.8876 39.1161 40.125 38.5543 40.125 37.9766H38.125ZM37.8803 38.5687C37.6965 38.8607 37.4204 39.1523 37.0228 39.4345L38.1803 41.0655C38.7515 40.6602 39.2254 40.1861 39.5728 39.6344L37.8803 38.5687ZM37.0127 39.4418C36.0821 40.1198 35.0913 40.4453 34.0156 40.4453V42.4453C35.5337 42.4453 36.9336 41.974 38.1904 41.0582L37.0127 39.4418ZM34.0156 40.4453C32.8234 40.4453 31.9243 40.2432 31.265 39.9013L30.3444 41.6768C31.3726 42.21 32.6141 42.4453 34.0156 42.4453V40.4453ZM31.2718 39.9049C30.5374 39.5169 29.8517 39.0078 29.2149 38.371L27.8007 39.7852C28.5702 40.5547 29.4157 41.1863 30.3376 41.6733L31.2718 39.9049ZM29.2305 38.3869C28.5914 37.7189 27.9983 36.9585 27.4524 36.1028L25.7663 37.1784C26.3767 38.1353 27.0492 38.9999 27.7852 39.7693L29.2305 38.3869ZM27.459 36.1133C26.9094 35.2277 26.3901 34.319 25.9012 33.387L24.1301 34.3161C24.6412 35.2904 25.1844 36.2411 25.7597 37.168L27.459 36.1133ZM25.9116 33.4074L24.5287 30.6183L22.7369 31.5067L24.1197 34.2958L25.9116 33.4074ZM24.5327 30.6264C23.5565 28.6121 22.7006 27.1499 21.9632 26.432L20.568 27.8649C21.0182 28.3032 21.7403 29.4504 22.7329 31.4986L24.5327 30.6264ZM21.9821 26.4508C21.3413 25.7927 20.5645 25.2578 19.6719 25.2578V27.2578C19.748 27.2578 20.0337 27.3167 20.5492 27.8461L21.9821 26.4508ZM19.6719 25.2578H17.3047V27.2578H19.6719V25.2578ZM17.3047 25.2578C17.327 25.2578 17.3947 25.2621 17.4811 25.3036C17.5723 25.3474 17.6422 25.4126 17.6866 25.4765C17.7265 25.5339 17.7327 25.5709 17.7296 25.5577C17.7265 25.5443 17.7188 25.5 17.7188 25.4141H15.7188C15.7188 25.7802 15.7767 26.2326 16.0439 26.6173C16.3569 27.0681 16.8352 27.2578 17.3047 27.2578V25.2578ZM17.7188 25.4141C17.7188 24.9285 17.8819 24.6273 18.2026 24.391L17.0162 22.7809C16.1494 23.4196 15.7188 24.3371 15.7188 25.4141H17.7188ZM18.1786 24.4081C18.0918 24.4682 18.0405 24.4733 18.0979 24.4578C18.141 24.4462 18.22 24.4299 18.3459 24.4138C18.5975 24.3815 18.9617 24.359 19.4529 24.3514L19.4221 22.3517C18.8976 22.3597 18.4494 22.3841 18.0916 22.43C17.9128 22.4529 17.738 22.4835 17.5779 22.5266C17.4322 22.5658 17.2286 22.6333 17.0402 22.7637L18.1786 24.4081ZM19.4683 24.3511C20.6009 24.3162 21.8361 24.074 23.165 23.6475L22.5537 21.7432C21.3514 22.1291 20.3054 22.3244 19.4067 22.352L19.4683 24.3511ZM23.1616 23.6485C24.5403 23.2114 25.7204 22.6004 26.6707 21.7935L25.3762 20.269C24.6702 20.8684 23.741 21.3667 22.5571 21.7421L23.1616 23.6485ZM26.6772 21.7879C28.5471 20.1722 29.4375 17.9196 29.4375 15.1719H27.4375C27.4375 17.4554 26.7185 19.1091 25.3696 20.2746L26.6772 21.7879ZM29.4375 15.1719C29.4375 12.815 28.6405 10.8186 27.019 9.2692L25.6373 10.7152C26.8283 11.8532 27.4375 13.31 27.4375 15.1719H29.4375ZM27.0172 9.26754C25.1916 7.53137 22.7028 6.70512 19.6829 6.67194L19.6609 8.67181C22.3284 8.70113 24.2772 9.42176 25.639 10.7168L27.0172 9.26754ZM19.6719 6.67188C18.6912 6.67188 17.8304 6.74479 17.1086 6.9072C16.3968 7.06737 15.7426 7.33162 15.2529 7.77233L16.5908 9.25892C16.7262 9.13713 17.0095 8.97951 17.5476 8.85842C18.0758 8.73958 18.7775 8.67188 19.6719 8.67188V6.67188ZM15.2742 7.75369C14.3086 8.57443 13.9705 9.96256 13.9377 11.518L15.9373 11.5601C15.967 10.1468 16.2851 9.51932 16.5695 9.27757L15.2742 7.75369ZM13.9375 11.5391V35.4688H15.9375V11.5391H13.9375ZM13.9375 35.4688C13.9375 36.8283 14.3173 38.1324 15.538 38.715L16.3995 36.91C16.2452 36.8364 15.9375 36.578 15.9375 35.4688H13.9375ZM15.5748 38.7316C15.8746 38.8601 16.2316 38.9623 16.6235 39.0475L17.0484 37.0931C16.7215 37.0221 16.5004 36.9524 16.3627 36.8934L15.5748 38.7316ZM16.6235 39.0475C16.9636 39.1214 17.2864 39.2022 17.5925 39.2896L18.1419 37.3666C17.7917 37.2665 17.4271 37.1755 17.0484 37.0931L16.6235 39.0475ZM17.6456 39.3033C17.929 39.3677 18.1287 39.4431 18.2638 39.5152L19.205 37.7505C18.8713 37.5725 18.4929 37.4448 18.0888 37.353L17.6456 39.3033ZM18.2638 39.5152C18.3988 39.5872 18.4376 39.6387 18.4416 39.6444C18.443 39.6465 18.4404 39.643 18.4382 39.6358C18.4361 39.6289 18.4375 39.6289 18.4375 39.6406H20.4375C20.4375 38.7488 19.8999 38.1211 19.205 37.7505L18.2638 39.5152ZM18.4375 39.6406C18.4375 40.2926 18.3145 40.5217 18.2816 40.5628L19.8434 41.8122C20.3105 41.2283 20.4375 40.4261 20.4375 39.6406H18.4375ZM43.8594 19.4141L42.9918 18.9167L42.9897 18.9205L43.8594 19.4141ZM46.2031 16.3438L45.5085 15.6243L45.5023 15.6304L46.2031 16.3438ZM49.1094 14.1641L49.5984 15.0364L49.6041 15.0331L49.1094 14.1641ZM59.8438 13.4844L59.3342 14.3449L59.3427 14.3498L59.8438 13.4844ZM62.75 16.25L63.5957 15.7162L63.589 15.7058L62.75 16.25ZM63.125 27.125L63.1465 28.1248L63.1524 28.1246L63.125 27.125ZM46.7656 27.4766L46.7441 26.4768L45.7382 26.4984L45.766 27.5042L46.7656 27.4766ZM49.3906 35L48.6903 35.7138L48.6915 35.715L49.3906 35ZM62.9609 34.9766V33.9766H62.6572L62.4048 34.1455L62.9609 34.9766ZM63.4766 35.3281L64.2448 34.6879L64.2386 34.6805L64.2323 34.6732L63.4766 35.3281ZM61.25 39.4297L61.7789 40.2784L61.78 40.2777L61.25 39.4297ZM44.8672 37.8594L45.6122 37.1923L45.6105 37.1904L44.8672 37.8594ZM46.9062 24.4531L45.9144 24.3253L45.7618 25.5099L46.9548 25.4519L46.9062 24.4531ZM59.2578 23.5859L59.3536 24.5813L60.2269 24.4973L60.2572 23.6205L59.2578 23.5859ZM49.1562 18.4766L48.383 17.8425L48.3812 17.8447L49.1562 18.4766ZM42.7031 28.3906C42.7031 26.5666 42.8918 24.976 43.2555 23.6086L41.3227 23.0945C40.9051 24.6646 40.7031 26.4334 40.7031 28.3906H42.7031ZM43.2555 23.6086C43.6272 22.211 44.1206 20.9798 44.7291 19.9077L42.9897 18.9205C42.2857 20.1608 41.7322 21.5547 41.3227 23.0945L43.2555 23.6086ZM44.7269 19.9114C45.357 18.8124 46.0836 17.863 46.9039 17.0571L45.5023 15.6304C44.5414 16.5745 43.7055 17.672 42.9918 18.9167L44.7269 19.9114ZM46.8977 17.0632C47.7463 16.2438 48.6467 15.5699 49.5984 15.0363L48.6204 13.2918C47.5096 13.9145 46.4724 14.6937 45.5085 15.6243L46.8977 17.0632ZM49.6041 15.0331C51.5129 13.9466 53.344 13.4297 55.1094 13.4297V11.4297C52.9373 11.4297 50.7684 12.069 48.6147 13.295L49.6041 15.0331ZM55.1094 13.4297C56.9712 13.4297 58.3532 13.764 59.3343 14.3449L60.3532 12.6239C58.9593 11.7985 57.1851 11.4297 55.1094 11.4297V13.4297ZM59.3427 14.3498C60.3932 14.958 61.2464 15.7695 61.911 16.7942L63.589 15.7058C62.7536 14.418 61.6693 13.3858 60.3448 12.6189L59.3427 14.3498ZM61.9044 16.7838C63.1612 18.775 63.8359 21.4988 63.8359 25.0391H65.8359C65.8359 21.2668 65.12 18.1313 63.5956 15.7162L61.9044 16.7838ZM63.8359 25.0391C63.8359 25.6008 63.7149 25.8485 63.635 25.9459C63.581 26.0118 63.4619 26.1154 63.0976 26.1254L63.1524 28.1246C63.9287 28.1034 64.6651 27.8437 65.1814 27.2143C65.6718 26.6163 65.8359 25.8367 65.8359 25.0391H63.8359ZM63.1035 26.1252L46.7441 26.4768L46.7871 28.4763L63.1465 28.1248L63.1035 26.1252ZM45.766 27.5042C45.8636 31.035 46.779 33.8385 48.6903 35.7138L50.091 34.2862C48.6898 32.9115 47.8551 30.6994 47.7652 27.4489L45.766 27.5042ZM48.6915 35.715C50.3105 37.298 52.3944 38.0625 54.8516 38.0625V36.0625C52.8399 36.0625 51.2833 35.452 50.0897 34.285L48.6915 35.715ZM54.8516 38.0625C58.3134 38.0625 61.228 37.3394 63.5171 35.8077L62.4048 34.1455C60.5376 35.395 58.046 36.0625 54.8516 36.0625V38.0625ZM62.9609 35.9766C62.8561 35.9766 62.7739 35.9546 62.7211 35.9349C62.6696 35.9155 62.6396 35.8959 62.632 35.8907C62.6211 35.8832 62.651 35.9025 62.7209 35.9831L64.2323 34.6732C64.099 34.5194 63.9414 34.3629 63.7586 34.2382C63.5819 34.1177 63.3073 33.9766 62.9609 33.9766V35.9766ZM62.7083 35.9683C62.8682 36.1601 62.9628 36.3096 63.0148 36.4177C63.0668 36.526 63.0625 36.5641 63.0625 36.5469H65.0625C65.0625 35.8464 64.6811 35.2115 64.2448 34.6879L62.7083 35.9683ZM63.0625 36.5469C63.0625 36.5194 63.0615 36.7034 62.6436 37.1318C62.2547 37.5303 61.6273 38.0146 60.72 38.5817L61.78 40.2777C62.7477 39.6729 63.5265 39.0908 64.0752 38.5284C64.5948 37.9958 65.0625 37.3244 65.0625 36.5469H63.0625ZM60.7211 38.581C58.7437 39.8133 56.4164 40.4453 53.7031 40.4453V42.4453C56.7399 42.4453 59.4438 41.7336 61.7789 40.2784L60.7211 38.581ZM53.7031 40.4453C50.1848 40.4453 47.5306 39.3348 45.6122 37.1923L44.1222 38.5265C46.485 41.1652 49.7214 42.4453 53.7031 42.4453V40.4453ZM45.6105 37.1904C43.7059 35.0742 42.7031 32.1786 42.7031 28.3906H40.7031C40.7031 32.5401 41.8097 35.957 44.1239 38.5283L45.6105 37.1904ZM46.9548 25.4519C51.4676 25.2326 55.6008 24.9425 59.3536 24.5813L59.162 22.5905C55.4461 22.9481 51.3449 23.2362 46.8577 23.4543L46.9548 25.4519ZM60.2572 23.6205C60.3462 21.0481 59.9583 18.928 58.92 17.4272C57.8359 15.86 56.1615 15.1328 54.1016 15.1328V17.1328C55.651 17.1328 56.6407 17.6478 57.2753 18.565C57.9557 19.5486 58.3413 21.1551 58.2584 23.5514L60.2572 23.6205ZM54.1016 15.1328C51.7855 15.1328 49.8536 16.049 48.383 17.8425L49.9295 19.1106C51.0214 17.7791 52.3864 17.1328 54.1016 17.1328V15.1328ZM48.3812 17.8447C47.0544 19.4722 46.2576 21.6618 45.9144 24.3253L47.8981 24.5809C48.2112 22.1507 48.9143 20.356 49.9313 19.1084L48.3812 17.8447ZM86.8906 20.9844L85.891 20.9566L85.873 21.6036L86.4559 21.8849L86.8906 20.9844ZM86.9141 20.1406L87.9137 20.1684L87.9141 20.1545V20.1406H86.9141ZM86.7031 18.6406L85.7217 18.8326L85.7225 18.8367L86.7031 18.6406ZM85.3438 16.8828L84.8266 17.7388L84.8344 17.7434L85.3438 16.8828ZM79.3672 17.0938L79.9117 17.9325L79.9152 17.9302L79.3672 17.0938ZM77.1875 19.4375L76.3193 18.9414L76.3175 18.9445L77.1875 19.4375ZM77.75 34.2031L78.5421 33.5928L78.5411 33.5915L77.75 34.2031ZM89.8438 35.2578L90.3592 36.1147L90.3663 36.1104L89.8438 35.2578ZM90.9688 34.4844V33.4844H90.61L90.333 33.7124L90.9688 34.4844ZM91.5078 34.8594L90.7317 35.49L90.7409 35.5013L90.7504 35.5123L91.5078 34.8594ZM91.7656 36.8984L92.6093 37.4353L92.6146 37.4269L92.6198 37.4184L91.7656 36.8984ZM90.8047 38.0234L91.4978 38.7443L91.4983 38.7438L90.8047 38.0234ZM87.3828 40.3203L86.9675 39.4106L86.9671 39.4108L87.3828 40.3203ZM77.5156 40.5781L77.1442 41.5067L77.156 41.5112L77.5156 40.5781ZM73.6719 37.9766L74.3986 37.2896L74.3951 37.286L73.6719 37.9766ZM74.6094 16.3906L73.9064 15.6794L73.9042 15.6816L74.6094 16.3906ZM89.6094 13.9062L89.0686 14.7474L89.0699 14.7482L89.6094 13.9062ZM91.4141 20.0703L90.6583 19.4153L90.6518 19.4231L91.4141 20.0703ZM87.8902 21.0121L87.9137 20.1684L85.9145 20.1129L85.891 20.9566L87.8902 21.0121ZM87.9141 20.1406C87.9141 19.7343 87.8242 19.1472 87.6837 18.4445L85.7225 18.8367C85.8633 19.5403 85.9141 19.9532 85.9141 20.1406H87.9141ZM87.6845 18.4486C87.4775 17.3906 86.8069 16.5868 85.8531 16.0222L84.8344 17.7434C85.4118 18.0851 85.6475 18.4532 85.7217 18.8326L87.6845 18.4486ZM85.8609 16.0269C84.9107 15.4528 83.7555 15.2031 82.4609 15.2031V17.2031C83.5102 17.2031 84.2768 17.4066 84.8266 17.7387L85.8609 16.0269ZM82.4609 15.2031C81.1237 15.2031 79.8994 15.5496 78.8192 16.2573L79.9152 17.9302C80.6475 17.4504 81.4857 17.2031 82.4609 17.2031V15.2031ZM78.8227 16.255C77.7894 16.9257 76.9553 17.8282 76.3193 18.9414L78.0557 19.9336C78.5447 19.078 79.1637 18.418 79.9117 17.9325L78.8227 16.255ZM76.3175 18.9445C75.1396 21.0232 74.5938 23.7214 74.5938 26.9609H76.5938C76.5938 23.9193 77.1104 21.6018 78.0575 19.9305L76.3175 18.9445ZM74.5938 26.9609C74.5938 30.0919 75.3538 32.7386 76.9589 34.8148L78.5411 33.5915C77.2712 31.9489 76.5938 29.7675 76.5938 26.9609H74.5938ZM76.9579 34.8135C78.6159 36.9654 80.846 38.0625 83.5625 38.0625V36.0625C81.4665 36.0625 79.8216 35.2533 78.5421 33.5928L76.9579 34.8135ZM83.5625 38.0625C85.9439 38.0625 88.2144 37.4049 90.3592 36.1147L89.3283 34.4009C87.4731 35.5169 85.5561 36.0625 83.5625 36.0625V38.0625ZM90.3663 36.1104C90.8683 35.8027 91.2876 35.5173 91.6045 35.2563L90.333 33.7124C90.1187 33.889 89.7879 34.1192 89.3212 34.4052L90.3663 36.1104ZM90.9688 35.4844C90.7757 35.4844 90.6624 35.4079 90.6496 35.399C90.6356 35.3893 90.6642 35.4069 90.7317 35.49L92.2839 34.2288C92.1483 34.0619 91.9855 33.892 91.7918 33.7572C91.5993 33.6233 91.318 33.4844 90.9688 33.4844V35.4844ZM90.7504 35.5123C90.9164 35.7049 91.0131 35.8479 91.0644 35.9442C91.1192 36.0472 91.0938 36.0438 91.0938 35.9609H93.0938C93.0938 35.5968 92.9706 35.2692 92.8301 35.005C92.6861 34.7342 92.4899 34.467 92.2652 34.2064L90.7504 35.5123ZM91.0938 35.9609C91.0938 35.9574 91.0942 35.989 91.0679 36.0642C91.0416 36.1393 90.9936 36.2434 90.9114 36.3785L92.6198 37.4184C92.8833 36.9856 93.0938 36.4877 93.0938 35.9609H91.0938ZM90.922 36.3616C90.7598 36.6164 90.4984 36.9301 90.111 37.3031L91.4983 38.7438C91.9547 38.3043 92.3339 37.868 92.6093 37.4353L90.922 36.3616ZM90.1116 37.3026C89.75 37.6502 89.2995 38.0167 88.7532 38.4006L89.9031 40.0369C90.513 39.6083 91.0468 39.1779 91.4978 38.7443L90.1116 37.3026ZM88.7532 38.4006C88.2308 38.7676 87.6368 39.1051 86.9675 39.4106L87.7981 41.23C88.5663 40.8793 89.2692 40.4824 89.9031 40.0369L88.7532 38.4006ZM86.9671 39.4108C85.4503 40.1042 83.9119 40.4453 82.3438 40.4453V42.4453C84.2131 42.4453 86.0341 42.0364 87.7986 41.2298L86.9671 39.4108ZM82.3438 40.4453C80.7394 40.4453 79.2528 40.1759 77.8753 39.645L77.156 41.5112C78.7785 42.1366 80.5106 42.4453 82.3438 42.4453V40.4453ZM77.887 39.6496C76.5346 39.1087 75.3753 38.323 74.3986 37.2896L72.9451 38.6635C74.1247 39.9114 75.5279 40.8601 77.1442 41.5066L77.887 39.6496ZM74.3951 37.286C72.3039 35.0959 71.2031 32.0404 71.2031 27.9922H69.2031C69.2031 32.4127 70.4148 36.0135 72.9486 38.6671L74.3951 37.286ZM71.2031 27.9922C71.2031 23.3993 72.5964 19.8034 75.3146 17.0996L73.9042 15.6816C70.7474 18.8216 69.2031 22.9601 69.2031 27.9922H71.2031ZM75.3123 17.1019C77.8121 14.6313 80.6509 13.4297 83.8672 13.4297V11.4297C80.0834 11.4297 76.7504 12.8687 73.9064 15.6794L75.3123 17.1019ZM83.8672 13.4297C86.0223 13.4297 87.7361 13.8908 89.0686 14.7474L90.1501 13.0651C88.4202 11.953 86.3059 11.4297 83.8672 11.4297V13.4297ZM89.0699 14.7482C90.4372 15.6244 91.0234 16.6877 91.0234 17.9844H93.0234C93.0234 15.906 92.0003 14.2506 90.1489 13.0643L89.0699 14.7482ZM91.0234 17.9844C91.0234 18.7793 90.8459 19.199 90.6584 19.4154L92.1698 20.7252C92.7948 20.0041 93.0234 19.0332 93.0234 17.9844H91.0234ZM90.6518 19.4231C90.1051 20.0669 89.5489 20.3125 88.9531 20.3125V22.3125C90.2323 22.3125 91.3168 21.7299 92.1764 20.7175L90.6518 19.4231ZM88.9531 20.3125C88.0766 20.3125 87.5724 20.2031 87.3254 20.0838L86.4559 21.8849C87.1151 22.2032 87.9859 22.3125 88.9531 22.3125V20.3125ZM100.625 7.83594L100.259 8.76669L100.279 8.77442L100.299 8.78131L100.625 7.83594ZM99.4766 7.10938L98.7861 7.83273L98.7869 7.83351L99.4766 7.10938ZM99.6641 1.76562L100.335 2.5075L100.342 2.50095L100.349 2.49425L99.6641 1.76562ZM104.914 7.01562L105.591 7.7522L105.599 7.74425L104.914 7.01562ZM97.4375 38.0469L97.7537 37.0982L97.0922 36.8777L96.6566 37.4222L97.4375 38.0469ZM100.602 35.4688H99.6016V35.4772L99.6017 35.4857L100.602 35.4688ZM100.133 17.4922L99.3053 18.0537L99.3169 18.0708L99.3293 18.0874L100.133 17.4922ZM96.9453 17.0469L97.0557 18.0408L97.1458 18.0307L97.2327 18.0047L96.9453 17.0469ZM96.3359 16.3906L95.3679 16.6416L95.3697 16.6483L96.3359 16.3906ZM96.5234 15.2891L97.3234 15.8891L97.3304 15.8798L97.3372 15.8703L96.5234 15.2891ZM97.6016 14.2812L98.1803 15.0968L98.1852 15.0933L97.6016 14.2812ZM99.2422 13.3438L99.6506 14.2566L99.6612 14.2518L99.6717 14.2468L99.2422 13.3438ZM104.352 12.8047L103.827 13.6563L103.835 13.6607L103.842 13.665L104.352 12.8047ZM105.312 13.8125L106.207 13.3653L106.204 13.3587L106.2 13.3522L105.312 13.8125ZM105.828 35.8672H104.828V35.8862L104.829 35.9051L105.828 35.8672ZM107.164 38.1172L107.48 37.1685L107.472 37.1659L107.464 37.1633L107.164 38.1172ZM108.945 38.5625L108.612 39.5055L108.645 39.5169L108.678 39.526L108.945 38.5625ZM109.602 38.8438L110.209 38.0494L110.192 38.0366L110.175 38.0245L109.602 38.8438ZM109.648 41.1172L109.417 42.09L110.038 42.2378L110.433 41.7368L109.648 41.1172ZM102.102 7.07031C101.669 7.07031 101.289 7.00695 100.951 6.89056L100.299 8.78131C100.868 8.97742 101.471 9.07031 102.102 9.07031V7.07031ZM100.991 6.90519C100.669 6.77879 100.397 6.60524 100.166 6.38524L98.7869 7.83351C99.2122 8.23851 99.7061 8.54934 100.259 8.76669L100.991 6.90519ZM100.167 6.38602C99.7105 5.95024 99.4453 5.34674 99.4453 4.46094H97.4453C97.4453 5.79389 97.8676 6.95601 98.7861 7.83273L100.167 6.38602ZM99.4453 4.46094C99.4453 3.69093 99.7245 3.05891 100.335 2.5075L98.9935 1.02375C97.9786 1.94109 97.4453 3.10595 97.4453 4.46094H99.4453ZM100.349 2.49425C100.941 1.93805 101.632 1.66406 102.477 1.66406V-0.335938C101.134 -0.335938 99.9499 0.124451 98.9791 1.037L100.349 2.49425ZM102.477 1.66406C103.356 1.66406 103.959 1.92003 104.394 2.35554L105.809 0.941331C104.932 0.0643454 103.785 -0.335938 102.477 -0.335938V1.66406ZM104.394 2.35554C104.825 2.78569 105.086 3.40049 105.086 4.32031H107.086C107.086 2.99013 106.691 1.82369 105.809 0.941331L104.394 2.35554ZM105.086 4.32031C105.086 5.10401 104.811 5.73966 104.229 6.287L105.599 7.74425C106.579 6.82284 107.086 5.66161 107.086 4.32031H105.086ZM104.238 6.27909C103.67 6.80072 102.979 7.07031 102.102 7.07031V9.07031C103.443 9.07031 104.627 8.63678 105.59 7.75216L104.238 6.27909ZM100.672 40C99.5132 40 98.7835 39.8635 98.3786 39.6795C98.1885 39.593 98.1176 39.5173 98.0945 39.4858C98.0795 39.4654 98.0625 39.4371 98.0625 39.3594H96.0625C96.0625 39.8286 96.1958 40.2787 96.4817 40.6685C96.7593 41.0471 97.1396 41.3132 97.551 41.5002C98.3493 41.8631 99.4243 42 100.672 42V40ZM98.0625 39.3594C98.0625 38.9335 98.1579 38.7471 98.2184 38.6716L96.6566 37.4222C96.2171 37.9716 96.0625 38.6602 96.0625 39.3594H98.0625ZM97.1213 38.9956C97.5725 39.146 98.0246 39.2344 98.4688 39.2344V37.2344C98.2879 37.2344 98.0525 37.1978 97.7537 37.0982L97.1213 38.9956ZM98.4688 39.2344C99.4204 39.2344 100.292 38.9203 100.884 38.1537C101.438 37.4348 101.619 36.4764 101.601 35.4518L99.6017 35.4857C99.6156 36.3049 99.4565 36.7293 99.2999 36.9323C99.1803 37.0875 98.9702 37.2344 98.4688 37.2344V39.2344ZM101.602 35.4688V19.7656H99.6016V35.4688H101.602ZM101.602 19.7656C101.602 18.6476 101.456 17.5983 100.936 16.897L99.3293 18.0874C99.4348 18.2299 99.6016 18.6962 99.6016 19.7656H101.602ZM100.96 16.9307C100.399 16.1042 99.4602 15.8359 98.5156 15.8359V17.8359C99.1335 17.8359 99.2724 18.0052 99.3053 18.0537L100.96 16.9307ZM98.5156 15.8359C97.8573 15.8359 97.235 15.9159 96.658 16.089L97.2327 18.0047C97.5931 17.8966 98.0177 17.8359 98.5156 17.8359V15.8359ZM96.8349 16.053C96.9097 16.0447 97.0075 16.0512 97.11 16.0909C97.2107 16.1298 97.2778 16.186 97.3148 16.2258C97.3489 16.2625 97.3556 16.2831 97.3468 16.2646C97.3384 16.2469 97.3216 16.2059 97.3022 16.133L95.3697 16.6483C95.4509 16.9527 95.5878 17.3051 95.8492 17.5867C96.1525 17.9133 96.5806 18.0936 97.0557 18.0408L96.8349 16.053ZM97.3039 16.1397C97.2609 15.9735 97.2943 15.9279 97.3234 15.8891L95.7234 14.6891C95.2838 15.2752 95.1923 15.964 95.3679 16.6416L97.3039 16.1397ZM97.3372 15.8703C97.484 15.6648 97.7479 15.4036 98.1803 15.0968L97.0228 13.4657C96.4865 13.8464 96.0317 14.2571 95.7097 14.7078L97.3372 15.8703ZM98.1852 15.0933C98.6273 14.7755 99.115 14.4961 99.6506 14.2566L98.8338 12.4309C98.1818 12.7226 97.5758 13.0683 97.0179 13.4692L98.1852 15.0933ZM99.6717 14.2468C100.895 13.6648 101.809 13.4297 102.453 13.4297V11.4297C101.379 11.4297 100.151 11.804 98.8127 12.4407L99.6717 14.2468ZM102.453 13.4297C103.255 13.4297 103.66 13.5536 103.827 13.6563L104.876 11.953C104.23 11.5558 103.37 11.4297 102.453 11.4297V13.4297ZM103.842 13.665C104.108 13.8228 104.295 14.0225 104.425 14.2728L106.2 13.3522C105.893 12.7588 105.439 12.2865 104.861 11.9444L103.842 13.665ZM104.418 14.2597C104.652 14.7286 104.828 15.64 104.828 17.1406H106.828C106.828 15.5787 106.66 14.2714 106.207 13.3653L104.418 14.2597ZM104.828 17.1406V35.8672H106.828V17.1406H104.828ZM104.829 35.9051C104.856 36.6237 105.002 37.3003 105.337 37.866C105.688 38.4559 106.211 38.8655 106.864 39.071L107.464 37.1633C107.274 37.1033 107.152 37.0051 107.057 36.8449C106.948 36.6607 106.847 36.3451 106.827 35.8292L104.829 35.9051ZM106.848 39.0659C107.141 39.1637 107.479 39.2442 107.852 39.312L108.21 37.3443C107.896 37.2871 107.656 37.227 107.48 37.1685L106.848 39.0659ZM107.852 39.312C108.156 39.3671 108.407 39.433 108.612 39.5055L109.278 37.6195C108.952 37.5045 108.594 37.4141 108.21 37.3443L107.852 39.312ZM108.678 39.526C108.901 39.5881 109.001 39.6437 109.028 39.663L110.175 38.0245C109.89 37.8251 109.552 37.6931 109.213 37.599L108.678 39.526ZM108.994 39.6381C108.988 39.6336 108.981 39.627 108.976 39.6195C108.971 39.6124 108.971 39.6102 108.973 39.6174C108.98 39.634 109 39.6957 109 39.8281H111C111 39.1824 110.803 38.5038 110.209 38.0494L108.994 39.6381ZM109 39.8281C109 40.2709 108.905 40.445 108.864 40.4975L110.433 41.7368C110.861 41.1957 111 40.5104 111 39.8281H109ZM109.88 40.1444C109.434 40.0381 108.837 40 108.148 40V42C108.803 42 109.207 42.04 109.417 42.09L109.88 40.1444ZM108.148 40H100.672V42H108.148V40ZM125.469 49.7656L126.263 49.1582L125.901 48.6843L125.312 48.778L125.469 49.7656ZM125.234 51.8047L124.618 51.0172L124.608 51.0253L124.597 51.0337L125.234 51.8047ZM123.922 52.5312L124.252 53.4754L124.264 53.471L123.922 52.5312ZM117.359 52.2031L116.719 52.9713L116.727 52.9777L116.735 52.984L117.359 52.2031ZM115.414 17.3984L115.963 16.5627L115.955 16.5573L115.414 17.3984ZM113.68 17.3516L113.232 16.4571L113.219 16.4639L113.206 16.4711L113.68 17.3516ZM113.164 17.5859L112.848 16.6373L112.83 16.6431L112.813 16.6496L113.164 17.5859ZM112.836 17.5859L112.281 18.418L112.333 18.4525L112.389 18.4804L112.836 17.5859ZM112.555 17.3281L111.786 17.9684L111.795 17.9789L112.555 17.3281ZM112.484 15.6875L111.646 15.1425L111.639 15.1535L112.484 15.6875ZM113.445 14.6328L114.111 15.3787L114.119 15.3722L114.126 15.3656L113.445 14.6328ZM114.945 13.5312L114.443 12.6663L114.441 12.6675L114.945 13.5312ZM121.391 15.875L120.396 15.9765L120.601 17.9845L122.074 16.605L121.391 15.875ZM137.234 15.7344L136.499 16.4122L136.501 16.4145L137.234 15.7344ZM138.383 34.1797L139.25 34.6784L139.25 34.6782L138.383 34.1797ZM132.969 39.5469L132.477 38.6761L132.471 38.6798L132.969 39.5469ZM121.461 40.7891L121.726 39.8247L120.461 39.4776V40.7891H121.461ZM121.883 48.7109L120.984 49.1484L120.988 49.1581L121.883 48.7109ZM122.773 49.7656L122.428 50.704L122.435 50.7068L122.443 50.7095L122.773 49.7656ZM121.461 19.5312L120.772 18.8064L120.461 19.1021V19.5312H121.461ZM121.461 35.7969H120.461V36.2584L120.812 36.5578L121.461 35.7969ZM132.781 35L133.542 35.6486L133.545 35.6457L132.781 35ZM133.062 19.25L132.28 19.8729L132.284 19.878L133.062 19.25ZM124.674 50.3731C124.717 50.4294 124.773 50.5383 124.773 50.7734H126.773C126.773 50.1961 126.626 49.6331 126.263 49.1582L124.674 50.3731ZM124.773 50.7734C124.773 50.8314 124.769 50.8989 124.618 51.0172L125.851 52.5922C126.418 52.148 126.773 51.528 126.773 50.7734H124.773ZM124.597 51.0337C124.34 51.2463 124.007 51.4362 123.58 51.5915L124.264 53.471C124.868 53.2513 125.41 52.9568 125.871 52.5756L124.597 51.0337ZM123.592 51.5872C122.698 51.8994 121.864 52.0469 121.086 52.0469V54.0469C122.12 54.0469 123.177 53.8506 124.252 53.4753L123.592 51.5872ZM121.086 52.0469C120.219 52.0469 119.544 51.9864 119.042 51.8808L118.63 53.8379C119.316 53.9823 120.141 54.0469 121.086 54.0469V52.0469ZM119.042 51.8808C118.569 51.7813 118.229 51.6184 117.984 51.4223L116.735 52.984C117.271 53.4129 117.915 53.6875 118.63 53.8379L119.042 51.8808ZM118 51.4349C117.575 51.0813 117.234 50.383 117.234 49.0391H115.234C115.234 50.6639 115.644 52.075 116.719 52.9713L118 51.4349ZM117.234 49.0391V20.1406H115.234V49.0391H117.234ZM117.234 20.1406C117.234 19.3555 117.163 18.6528 116.987 18.0669C116.813 17.4851 116.506 16.9195 115.963 16.5627L114.865 18.2341C114.869 18.2367 114.972 18.3079 115.071 18.6401C115.169 18.9683 115.234 19.457 115.234 20.1406H117.234ZM115.955 16.5573C115.524 16.2804 115.027 16.1875 114.547 16.1875V18.1875C114.785 18.1875 114.866 18.2352 114.873 18.2396L115.955 16.5573ZM114.547 16.1875C114.1 16.1875 113.64 16.2535 113.232 16.4571L114.127 18.246C114.157 18.2309 114.275 18.1875 114.547 18.1875V16.1875ZM113.206 16.4711C113.028 16.5665 112.913 16.6156 112.848 16.6373L113.48 18.5346C113.697 18.4625 113.925 18.3554 114.154 18.232L113.206 16.4711ZM112.813 16.6496C112.839 16.6399 112.9 16.6211 112.988 16.6211C113.082 16.6211 113.185 16.6425 113.283 16.6915L112.389 18.4804C112.795 18.6836 113.206 18.6384 113.515 18.5223L112.813 16.6496ZM113.391 16.7539C113.391 16.754 113.364 16.7355 113.314 16.6773L111.795 17.9789C111.933 18.1395 112.094 18.2929 112.281 18.418L113.391 16.7539ZM113.323 16.6879C113.251 16.6012 113.219 16.543 113.206 16.5143C113.194 16.4883 113.203 16.4966 113.203 16.5312H111.203C111.203 17.1026 111.47 17.5885 111.786 17.9683L113.323 16.6879ZM113.203 16.5312C113.203 16.5064 113.212 16.4088 113.33 16.2215L111.639 15.1535C111.382 15.5599 111.203 16.0248 111.203 16.5312H113.203ZM113.323 16.2325C113.458 16.0241 113.707 15.74 114.111 15.3787L112.779 13.8869C112.309 14.3069 111.917 14.7259 111.646 15.1425L113.323 16.2325ZM114.126 15.3656C114.505 15.0137 114.944 14.6894 115.449 14.395L114.441 12.6675C113.821 13.0293 113.261 13.4395 112.765 13.9L114.126 15.3656ZM115.447 14.3962C116.584 13.7363 117.679 13.4297 118.742 13.4297V11.4297C117.274 11.4297 115.837 11.8575 114.443 12.6663L115.447 14.3962ZM118.742 13.4297C119.218 13.4297 119.52 13.5884 119.76 13.9005C120.04 14.2642 120.287 14.9131 120.396 15.9765L122.385 15.7735C122.26 14.54 121.949 13.4662 121.346 12.6816C120.703 11.8452 119.798 11.4297 118.742 11.4297V13.4297ZM122.074 16.605C124.374 14.4514 126.81 13.4297 129.406 13.4297V11.4297C126.221 11.4297 123.313 12.7048 120.707 15.145L122.074 16.605ZM129.406 13.4297C132.334 13.4297 134.67 14.4287 136.499 16.4122L137.97 15.0565C135.736 12.6338 132.853 11.4297 129.406 11.4297V13.4297ZM136.501 16.4145C138.485 18.5528 139.539 21.5933 139.539 25.6719H141.539C141.539 21.2505 140.39 17.666 137.968 15.0543L136.501 16.4145ZM139.539 25.6719C139.539 28.6868 138.858 31.3477 137.516 33.6812L139.25 34.6782C140.783 32.0117 141.539 29.0007 141.539 25.6719H139.539ZM137.516 33.681C136.293 35.8065 134.618 37.4672 132.477 38.6761L133.46 40.4177C135.913 39.0328 137.847 37.1154 139.25 34.6784L137.516 33.681ZM132.471 38.6798C130.415 39.8604 128.243 40.4453 125.938 40.4453V42.4453C128.601 42.4453 131.116 41.7646 133.467 40.414L132.471 38.6798ZM125.938 40.4453C124.651 40.4453 123.249 40.2429 121.726 39.8247L121.196 41.7534C122.861 42.2103 124.442 42.4453 125.938 42.4453V40.4453ZM120.461 40.7891V44.0469H122.461V40.7891H120.461ZM120.461 44.0469C120.461 45.3266 120.496 46.3816 120.57 47.2014C120.64 47.9753 120.754 48.6769 120.984 49.1484L122.782 48.2735C122.73 48.1669 122.633 47.8021 122.562 47.0212C122.496 46.2864 122.461 45.2984 122.461 44.0469H120.461ZM120.988 49.1581C121.158 49.4976 121.347 49.8086 121.564 50.0651C121.777 50.3169 122.059 50.5683 122.428 50.704L123.119 48.8273C123.191 48.8536 123.176 48.8745 123.092 48.7747C123.012 48.6797 122.904 48.518 122.777 48.2637L120.988 49.1581ZM122.443 50.7095C122.879 50.862 123.345 50.9297 123.828 50.9297V48.9297C123.53 48.9297 123.293 48.888 123.104 48.8218L122.443 50.7095ZM123.828 50.9297C124.311 50.9297 124.917 50.8659 125.626 50.7532L125.312 48.778C124.645 48.8841 124.158 48.9297 123.828 48.9297V50.9297ZM120.461 19.5312V35.7969H122.461V19.5312H120.461ZM120.812 36.5578C122.491 37.9895 124.515 38.6953 126.828 38.6953V36.6953C124.953 36.6953 123.399 36.1355 122.11 35.0359L120.812 36.5578ZM126.828 38.6953C129.548 38.6953 131.814 37.6766 133.542 35.6486L132.02 34.3514C130.686 35.9171 128.984 36.6953 126.828 36.6953V38.6953ZM133.545 35.6457C135.365 33.4928 136.219 30.6216 136.219 27.1484H134.219C134.219 30.3002 133.447 32.6634 132.018 34.3543L133.545 35.6457ZM136.219 27.1484C136.219 23.5493 135.48 20.653 133.841 18.622L132.284 19.878C133.52 21.4095 134.219 23.7788 134.219 27.1484H136.219ZM133.845 18.6272C132.352 16.7514 130.267 15.8359 127.719 15.8359V17.8359C129.733 17.8359 131.211 18.5299 132.28 19.8728L133.845 18.6272ZM127.719 15.8359C125.144 15.8359 122.82 16.8602 120.772 18.8064L122.15 20.2561C123.883 18.6086 125.731 17.8359 127.719 17.8359V15.8359ZM147.734 19.4141L146.867 18.9167L146.865 18.9205L147.734 19.4141ZM150.078 16.3438L149.383 15.6243L149.377 15.6304L150.078 16.3438ZM152.984 14.1641L153.473 15.0364L153.479 15.0331L152.984 14.1641ZM163.719 13.4844L163.209 14.3449L163.218 14.3498L163.719 13.4844ZM166.625 16.25L167.471 15.7162L167.464 15.7058L166.625 16.25ZM167 27.125L167.021 28.1248L167.027 28.1246L167 27.125ZM150.641 27.4766L150.619 26.4768L149.613 26.4984L149.641 27.5042L150.641 27.4766ZM153.266 35L152.565 35.7138L152.567 35.715L153.266 35ZM166.836 34.9766V33.9766H166.532L166.28 34.1455L166.836 34.9766ZM167.352 35.3281L168.12 34.6879L168.114 34.6805L168.107 34.6732L167.352 35.3281ZM165.125 39.4297L165.654 40.2784L165.655 40.2777L165.125 39.4297ZM148.742 37.8594L149.487 37.1923L149.485 37.1904L148.742 37.8594ZM150.781 24.4531L149.789 24.3253L149.637 25.5099L150.83 25.4519L150.781 24.4531ZM163.133 23.5859L163.229 24.5813L164.102 24.4973L164.132 23.6205L163.133 23.5859ZM153.031 18.4766L152.258 17.8425L152.256 17.8447L153.031 18.4766ZM146.578 28.3906C146.578 26.5666 146.767 24.976 147.13 23.6086L145.198 23.0945C144.78 24.6646 144.578 26.4334 144.578 28.3906H146.578ZM147.13 23.6086C147.502 22.211 147.996 20.9798 148.604 19.9077L146.865 18.9205C146.161 20.1608 145.607 21.5547 145.198 23.0945L147.13 23.6086ZM148.602 19.9114C149.232 18.8124 149.959 17.863 150.779 17.0571L149.377 15.6304C148.416 16.5745 147.58 17.672 146.867 18.9167L148.602 19.9114ZM150.773 17.0632C151.621 16.2438 152.522 15.5699 153.473 15.0363L152.495 13.2918C151.385 13.9145 150.347 14.6937 149.384 15.6243L150.773 17.0632ZM153.479 15.0331C155.388 13.9466 157.219 13.4297 158.984 13.4297V11.4297C156.812 11.4297 154.643 12.069 152.49 13.295L153.479 15.0331ZM158.984 13.4297C160.846 13.4297 162.228 13.764 163.209 14.3449L164.228 12.6239C162.834 11.7985 161.06 11.4297 158.984 11.4297V13.4297ZM163.218 14.3498C164.268 14.958 165.121 15.7695 165.786 16.7942L167.464 15.7058C166.629 14.418 165.544 13.3858 164.22 12.6189L163.218 14.3498ZM165.779 16.7838C167.036 18.775 167.711 21.4988 167.711 25.0391H169.711C169.711 21.2668 168.995 18.1313 167.471 15.7162L165.779 16.7838ZM167.711 25.0391C167.711 25.6008 167.59 25.8485 167.51 25.9459C167.456 26.0118 167.337 26.1154 166.973 26.1254L167.027 28.1246C167.804 28.1034 168.54 27.8437 169.056 27.2143C169.547 26.6163 169.711 25.8367 169.711 25.0391H167.711ZM166.979 26.1252L150.619 26.4768L150.662 28.4763L167.021 28.1248L166.979 26.1252ZM149.641 27.5042C149.739 31.035 150.654 33.8385 152.565 35.7138L153.966 34.2862C152.565 32.9115 151.73 30.6994 151.64 27.4489L149.641 27.5042ZM152.567 35.715C154.185 37.298 156.269 38.0625 158.727 38.0625V36.0625C156.715 36.0625 155.158 35.452 153.965 34.285L152.567 35.715ZM158.727 38.0625C162.188 38.0625 165.103 37.3394 167.392 35.8077L166.28 34.1455C164.413 35.395 161.921 36.0625 158.727 36.0625V38.0625ZM166.836 35.9766C166.731 35.9766 166.649 35.9546 166.596 35.9349C166.545 35.9155 166.515 35.8959 166.507 35.8907C166.496 35.8832 166.526 35.9025 166.596 35.9831L168.107 34.6732C167.974 34.5194 167.816 34.3629 167.634 34.2382C167.457 34.1177 167.182 33.9766 166.836 33.9766V35.9766ZM166.583 35.9683C166.743 36.1601 166.838 36.3096 166.89 36.4177C166.942 36.526 166.938 36.5641 166.938 36.5469H168.938C168.938 35.8464 168.556 35.2115 168.12 34.6879L166.583 35.9683ZM166.938 36.5469C166.938 36.5194 166.936 36.7034 166.519 37.1318C166.13 37.5303 165.502 38.0146 164.595 38.5817L165.655 40.2777C166.623 39.6729 167.402 39.0908 167.95 38.5284C168.47 37.9958 168.938 37.3244 168.938 36.5469H166.938ZM164.596 38.581C162.619 39.8133 160.291 40.4453 157.578 40.4453V42.4453C160.615 42.4453 163.319 41.7336 165.654 40.2784L164.596 38.581ZM157.578 40.4453C154.06 40.4453 151.406 39.3348 149.487 37.1923L147.997 38.5265C150.36 41.1652 153.596 42.4453 157.578 42.4453V40.4453ZM149.485 37.1904C147.581 35.0742 146.578 32.1786 146.578 28.3906H144.578C144.578 32.5401 145.685 35.957 147.999 38.5283L149.485 37.1904ZM150.83 25.4519C155.343 25.2326 159.476 24.9425 163.229 24.5813L163.037 22.5905C159.321 22.9481 155.22 23.2362 150.733 23.4543L150.83 25.4519ZM164.132 23.6205C164.221 21.0481 163.833 18.928 162.795 17.4272C161.711 15.86 160.036 15.1328 157.977 15.1328V17.1328C159.526 17.1328 160.516 17.6478 161.15 18.565C161.831 19.5486 162.216 21.1551 162.133 23.5514L164.132 23.6205ZM157.977 15.1328C155.661 15.1328 153.729 16.049 152.258 17.8425L153.805 19.1106C154.896 17.7791 156.261 17.1328 157.977 17.1328V15.1328ZM152.256 17.8447C150.929 19.4722 150.133 21.6618 149.789 24.3253L151.773 24.5809C152.086 22.1507 152.789 20.356 153.806 19.1084L152.256 17.8447Z" fill="black"/>
</g>
<defs>
<filter id="filter0_d_2_4" x="0.53125" y="0.664062" width="172.18" height="60.3828" filterUnits="userSpaceOnUse" color-interpolation-filters="sRGB">
<feFlood flood-opacity="0" result="BackgroundImageFix"/>
<feColorMatrix in="SourceAlpha" type="matrix" values="0 0 0 0 0 0 0 0 0 0 0 0 0 0 0 0 0 0 127 0" result="hardAlpha"/>
<feOffset dy="4"/>
<feGaussianBlur stdDeviation="2"/>
<feComposite in2="hardAlpha" operator="out"/>
<feColorMatrix type="matrix" values="0 0 0 0 0 0 0 0 0 0 0 0 0 0 0 0 0 0 0.25 0"/>
<feBlend mode="normal" in2="BackgroundImageFix" result="effect1_dropShadow_2_4"/>
<feBlend mode="normal" in="SourceGraphic" in2="effect1_dropShadow_2_4" result="shape"/>
</filter>
</defs>
</svg>
