<svg width="694" height="379" viewBox="0 0 694 379" fill="none" xmlns="http://www.w3.org/2000/svg">
<g clip-path="url(#clip0_2_134)">
<path d="M475.707 324.18C540.459 323.416 605.209 323.854 669.956 325.494C675.526 325.635 681.306 325.817 686.225 327.292C691.143 328.767 694.929 331.931 693.583 334.971C668.308 335.719 643.006 335.95 617.679 335.664C612.163 338.366 606.108 342.435 609.498 346.079C611.843 348.6 617.633 349.35 622.697 349.356C631.867 349.367 641.075 347.862 650.11 348.745C659.145 349.628 668.16 354.38 665.514 359.313C663.504 363.06 655.879 364.914 648.94 365.245C642 365.577 634.895 364.888 628.112 365.775C621.666 366.618 616.082 368.809 610.049 370.338C600.533 372.75 589.985 373.496 579.606 374.13C499.914 378.998 419.561 378.959 339.399 378.915C306.946 378.897 274.053 378.848 242.714 374.111C224.851 371.41 207.733 367.217 189.644 365.041C168.037 362.441 145.706 362.794 123.61 362.872C84.8197 363.009 46.0619 362.261 7.33681 360.629C4.45504 360.508 0.917733 360.096 0.140023 358.533C-0.767591 356.708 2.91588 355.284 6.02943 354.555C23.6721 350.472 41.6113 347.796 59.6778 346.553C68.8274 345.91 78.2559 345.582 86.6712 343.464C95.0865 341.346 102.438 336.905 102.359 331.724C102.335 330.144 101.668 328.453 102.987 327.057C104.739 325.203 109.048 324.778 112.766 324.576C153.98 322.336 195.418 321.401 236.82 321.776C251.383 321.909 266.006 322.201 280.466 321.22C292.315 320.417 303.92 318.766 315.597 317.381C331.27 315.521 399.482 305.888 409.432 313.704C416.881 319.556 401.503 320.819 421.481 323.206C438.876 325.286 458.064 324.388 475.707 324.18Z" fill="#F2F2F2"/>
<path d="M223.624 297.455C223.624 297.455 199.611 344.97 220.047 344.97C240.484 344.97 497.983 345.991 505.136 332.708C510.147 323.401 507.384 290.27 505.281 271.266C504.872 267.572 503.064 264.175 500.228 261.774C497.392 259.373 493.744 258.149 490.034 258.355C434.344 261.429 226.295 272.82 227.2 271.398C228.988 268.588 227.711 269.355 227.711 269.355C227.711 269.355 219.536 295.411 223.624 297.455Z" fill="#3F3D56"/>
<path opacity="0.1" d="M505.792 271.266C505.383 267.572 503.575 264.175 500.739 261.774C497.903 259.373 494.255 258.149 490.545 258.355C434.855 261.429 226.806 272.82 227.711 271.398C229.499 268.588 228.222 269.355 228.222 269.355C228.222 269.355 226.397 275.172 224.903 281.524C225.115 281.503 225.273 281.702 224.583 282.916C224.522 283.19 224.461 283.464 224.402 283.738C232.735 284.561 432.561 273.62 486.968 270.617C490.679 270.411 494.327 271.635 497.163 274.036C499.999 276.437 501.807 279.834 502.215 283.527C503.779 297.657 505.707 319.593 504.534 333.743C504.986 333.497 505.369 333.141 505.647 332.708C510.658 323.401 507.895 290.27 505.792 271.266Z" fill="black"/>
<path d="M252.245 226.247C249.583 225.431 246.214 224.378 246.517 222.66C246.679 221.747 247.9 221.035 248.785 220.27C250.491 218.795 250.951 216.717 249.119 215.292C247.286 213.868 242.873 213.677 241.257 215.185C240.425 215.96 240.475 216.933 240.046 217.809C238.706 220.541 233.287 221.741 228.684 222.803C224.08 223.864 218.929 225.84 219.362 228.667C219.834 231.751 226.936 234.486 224.079 237.116C223.042 238.069 220.863 238.601 220.399 239.692C220.072 240.46 220.728 241.24 221.364 241.941L225.887 246.924C227.686 248.906 229.54 251.063 228.937 253.27C227.743 257.643 218.034 259.317 210.338 258.825C207.52 258.645 204.208 258.399 202.272 259.583C200.779 260.496 200.782 261.917 201.278 263.134C202.555 266.265 206.639 268.977 211.866 270.164C206.007 271.32 203.707 276.192 207.751 278.876C205.437 279.673 202.934 279.744 200.578 279.082C198.577 280.924 199.753 283.451 202.291 285.062C204.828 286.673 208.422 287.58 211.903 288.441L208.646 291.486C211.003 293.327 216.093 292.678 219.526 291.515C222.959 290.351 226.683 288.789 230.529 289.398C234.136 289.969 236.865 292.375 240.537 291.963C243.384 291.643 244.738 289.814 245.625 288.235L249.395 281.524C254.76 282.363 260.402 278.687 258.247 275.755C264.252 276.399 270.162 272.5 268.191 269.194C271.389 271.66 273.641 274.526 274.742 277.53C275.234 278.873 275.534 280.293 276.875 281.43C277.751 282.082 278.766 282.523 279.841 282.717C280.916 282.912 282.021 282.855 283.07 282.551C281.976 284.675 281.089 287.151 283.339 288.953C285.589 290.755 292.082 290.244 291.795 288.036C295.227 289.51 299.072 290.896 303.36 291.006C307.648 291.116 312.341 289.484 312.732 287.04C318.775 289.034 325.098 290.051 331.461 290.055C332.002 288.42 335.783 287.891 338.609 288.291C341.436 288.69 344.057 289.651 346.969 289.652C349.88 289.654 353.012 287.901 351.521 286.472C357.652 287.754 363.945 288.072 370.174 287.413C376.05 286.789 381.619 285.307 387.569 284.987C393.604 284.619 399.647 285.574 405.276 287.784C407.227 288.602 409.651 289.631 411.794 288.989C413.01 288.626 413.6 287.84 414.426 287.213C417.98 284.517 425.247 285.034 430.854 286.094C436.461 287.154 442.983 288.43 447.896 286.557C449.75 285.85 451.115 284.757 453.087 284.164C460.151 282.038 468.605 287.486 476.102 285.918C478.544 285.408 480.525 284.186 483.111 284.036C487.698 283.769 490.729 286.878 495.19 287.546C499.817 288.24 504.834 285.424 503.705 282.766C508.153 282.865 512.588 282.249 516.841 280.941L514.74 277.159C519.975 277.075 523.826 273.322 521.4 270.669C526.65 269.669 530.801 266.978 531.88 263.875C532.959 260.773 530.925 257.379 526.743 255.307C524.275 254.084 521.034 253.224 519.623 251.54C518.607 250.328 518.755 248.917 518.36 247.592C517.495 244.691 513.747 242.129 508.905 241.131C506.802 240.697 504.501 240.532 502.596 239.862C500.692 239.192 499.317 237.741 500.416 236.628C500.997 236.039 502.118 235.692 502.842 235.157C505.779 232.989 500.743 230.243 496.444 229.026L506.711 228.69L508.915 218.695C504.853 221.998 494.316 221.303 491.677 217.558C494.975 218.64 499.398 217.256 501.01 215.287C502.623 213.319 502.227 211.029 501.796 208.869C501.755 208.332 501.576 207.816 501.277 207.369C500.977 206.922 500.566 206.561 500.085 206.32C499.08 205.841 497.479 205.641 497.15 204.918C496.813 204.179 498.113 203.527 498.306 202.772C498.676 201.322 495.345 200.684 493.095 199.983C487.788 198.329 485.218 193.682 479.179 193.833C473.187 193.983 471.512 198.558 471.508 201.987C471.504 205.416 469.476 210.001 463.48 209.938C461.085 209.913 458.997 209.052 457.085 208.228L439.91 200.821C437.641 199.765 435.28 198.918 432.857 198.292C429.393 197.483 425.566 197.388 421.827 197.303L397.801 196.757C396.578 196.661 395.346 196.767 394.157 197.07C392.895 197.492 392.282 198.322 391.521 199.036C388.176 202.177 380.311 203.407 374.634 201.677C373.129 201.219 371.78 200.586 370.185 200.241C365.162 199.152 359.891 201.166 354.671 201.894C346.115 203.087 335.483 201.034 329.314 204.627C327.258 205.825 326.167 207.463 324.261 208.74C322.355 210.017 318.917 210.883 316.513 209.919C316.815 212.262 317.09 214.708 315.504 216.875C313.918 219.043 309.849 220.812 305.852 220.265C303.73 219.704 303.898 217.921 304.901 216.714C305.904 215.508 307.443 214.275 306.943 212.97C306.447 211.675 304.176 210.922 302.477 210.019C300.779 209.116 299.647 207.406 301.45 206.573C300.235 205.011 295.867 205.201 293.945 206.511C292.024 207.821 291.832 209.666 291.622 211.371C291.413 213.076 290.956 214.944 288.729 216.086C284.935 218.031 277.651 217.022 275.135 219.555C274.335 220.36 274.288 221.331 273.831 222.219C271.789 226.181 262.976 227.207 255.773 227.531C255.621 228.355 255.587 229.197 255.673 230.031C258.137 228.965 254.03 226.794 252.245 226.247Z" fill="#61AB43"/>
<path opacity="0.1" d="M501.796 221.72C502.227 223.88 502.623 226.17 501.011 228.139C500.771 228.423 500.501 228.679 500.204 228.903C502.373 228.832 504.542 228.761 506.711 228.69C507.445 225.358 508.18 222.026 508.915 218.695C507.232 220.063 504.438 220.744 501.555 220.807C501.658 221.105 501.738 221.41 501.796 221.72Z" fill="black"/>
<path opacity="0.1" d="M503.691 233.494C503.435 232.143 501.207 230.772 498.713 229.792C496.518 230.835 494.02 231.054 491.677 230.409C493.497 232.992 499.073 234.124 503.691 233.494Z" fill="black"/>
<path opacity="0.1" d="M506.879 240.777C506.823 241.032 506.767 241.287 506.711 241.542C503.288 241.653 499.866 241.765 496.444 241.877C500.743 243.095 505.779 245.84 502.842 248.009C502.118 248.544 500.998 248.891 500.416 249.48C499.317 250.593 500.692 252.044 502.596 252.714C504.501 253.383 506.802 253.548 508.905 253.982C513.747 254.981 517.496 257.542 518.36 260.443C518.756 261.769 518.607 263.179 519.623 264.392C521.034 266.076 524.275 266.936 526.743 268.158C526.981 268.276 527.209 268.4 527.433 268.526C529.664 267.264 531.268 265.636 531.88 263.875C532.96 260.773 530.925 257.379 526.743 255.307C524.275 254.084 521.034 253.224 519.623 251.541C518.607 250.328 518.756 248.917 518.36 247.592C517.496 244.691 513.747 242.129 508.905 241.131C508.243 240.994 507.562 240.885 506.879 240.777Z" fill="black"/>
<path opacity="0.1" d="M206.091 286.807C206.89 285.106 208.932 283.594 211.866 283.016C209.063 282.433 206.421 281.242 204.13 279.526C202.93 279.561 201.732 279.411 200.578 279.082C198.577 280.924 199.753 283.451 202.291 285.062C203.487 285.786 204.762 286.372 206.091 286.807Z" fill="black"/>
<path opacity="0.1" d="M224.201 236.99C225.663 236.443 227.161 235.997 228.684 235.654C233.287 234.593 238.706 233.393 240.046 230.66C240.475 229.784 240.425 228.812 241.257 228.036C242.873 226.529 247.286 226.719 249.119 228.144C250.951 229.568 250.491 231.646 248.785 233.121C247.9 233.886 246.679 234.598 246.518 235.511C246.214 237.229 249.583 238.282 252.245 239.098C253.498 239.501 254.671 240.12 255.711 240.926C255.733 240.744 255.755 240.562 255.773 240.382C262.977 240.059 271.789 239.033 273.831 235.07C274.288 234.182 274.335 233.211 275.135 232.407C277.651 229.873 284.935 230.882 288.73 228.937C290.956 227.796 291.413 225.928 291.622 224.223C291.832 222.517 292.024 220.673 293.945 219.363C295.867 218.053 300.235 217.862 301.45 219.424C299.647 220.257 300.779 221.968 302.478 222.871C304.176 223.773 306.447 224.526 306.943 225.821C307.443 227.126 305.904 228.359 304.901 229.566C303.898 230.773 303.73 232.556 305.852 233.117C309.849 233.663 313.918 231.894 315.504 229.727C317.09 227.559 316.815 225.114 316.513 222.771C318.917 223.735 322.356 222.869 324.261 221.592C326.167 220.315 327.258 218.677 329.314 217.479C335.483 213.885 346.115 215.938 354.671 214.745C359.891 214.018 365.162 212.004 370.186 213.092C371.78 213.438 373.129 214.07 374.634 214.529C380.311 216.259 388.176 215.029 391.522 211.887C392.282 211.174 392.895 210.344 394.157 209.922C395.346 209.618 396.578 209.512 397.801 209.609C405.81 209.79 413.818 209.972 421.827 210.154C425.566 210.239 429.393 210.335 432.857 211.143C435.28 211.77 437.641 212.616 439.91 213.672C445.635 216.141 451.36 218.61 457.085 221.079C458.997 221.904 461.085 222.765 463.48 222.79C469.476 222.852 471.504 218.267 471.508 214.838C471.512 211.41 473.187 206.835 479.179 206.685C485.218 206.534 487.788 211.181 493.096 212.834C495.345 213.535 498.676 214.174 498.306 215.623C498.134 216.296 497.087 216.887 497.098 217.531C498.592 217.179 499.952 216.399 501.011 215.287C502.623 213.319 502.227 211.029 501.796 208.869C501.756 208.333 501.577 207.816 501.277 207.369C500.977 206.922 500.566 206.561 500.085 206.32C499.08 205.841 497.479 205.641 497.15 204.918C496.813 204.179 498.113 203.527 498.306 202.772C498.676 201.322 495.345 200.684 493.096 199.983C487.788 198.329 485.218 193.682 479.179 193.833C473.187 193.983 471.512 198.558 471.508 201.987C471.504 205.416 469.476 210.001 463.48 209.938C461.085 209.913 458.997 209.052 457.085 208.228C451.36 205.759 445.635 203.29 439.91 200.821C437.641 199.765 435.28 198.918 432.857 198.292C429.393 197.483 425.566 197.388 421.827 197.303C413.818 197.121 405.81 196.939 397.801 196.757C396.578 196.661 395.346 196.767 394.157 197.07C392.895 197.492 392.282 198.322 391.522 199.036C388.176 202.177 380.311 203.407 374.634 201.677C373.129 201.219 371.78 200.586 370.186 200.241C365.162 199.152 359.891 201.166 354.671 201.894C346.115 203.087 335.483 201.034 329.314 204.627C327.258 205.825 326.167 207.464 324.261 208.74C322.356 210.017 318.917 210.883 316.513 209.919C316.815 212.262 317.09 214.708 315.504 216.875C313.918 219.043 309.849 220.812 305.852 220.265C303.73 219.704 303.898 217.921 304.901 216.715C305.904 215.508 307.443 214.275 306.943 212.97C306.447 211.675 304.176 210.922 302.478 210.019C300.78 209.116 299.647 207.406 301.45 206.573C300.235 205.011 295.867 205.201 293.945 206.511C292.024 207.821 291.832 209.666 291.622 211.371C291.413 213.076 290.956 214.945 288.73 216.086C284.935 218.031 277.651 217.022 275.135 219.555C274.335 220.36 274.288 221.331 273.831 222.219C271.789 226.181 262.977 227.207 255.773 227.531C255.755 227.711 255.733 227.893 255.711 228.075C254.671 227.269 253.498 226.65 252.245 226.247C249.583 225.431 246.214 224.378 246.518 222.66C246.679 221.747 247.9 221.035 248.785 220.27C250.491 218.795 250.951 216.717 249.119 215.292C247.286 213.868 242.873 213.677 241.257 215.185C240.425 215.96 240.475 216.933 240.046 217.809C238.706 220.541 233.287 221.741 228.684 222.803C224.08 223.864 218.929 225.84 219.362 228.667C219.827 231.701 226.704 234.399 224.201 236.99Z" fill="black"/>
<path opacity="0.1" d="M211.866 270.164C210.6 270.398 209.391 270.871 208.303 271.559C208.992 271.589 209.679 271.634 210.339 271.677C218.034 272.168 227.743 270.495 228.937 266.121C229.54 263.914 227.686 261.757 225.887 259.775C225.164 258.978 224.44 258.181 223.717 257.385C219.952 258.664 214.807 259.11 210.339 258.825C207.52 258.645 204.208 258.399 202.272 259.583C200.779 260.496 200.782 261.917 201.278 263.134C202.555 266.265 206.639 268.977 211.866 270.164Z" fill="black"/>
<path d="M368.596 250.165C410.922 250.165 445.233 227.52 445.233 199.585C445.233 171.65 410.922 149.005 368.596 149.005C326.271 149.005 291.96 171.65 291.96 199.585C291.96 227.52 326.271 250.165 368.596 250.165Z" fill="#EA565C"/>
<path opacity="0.2" d="M342.54 196.008C342.54 196.008 307.798 199.585 318.016 184.768C328.234 169.952 341.007 164.843 347.138 168.93C353.269 173.017 355.823 184.257 354.802 184.257C353.78 184.257 338.963 175.572 333.854 182.214C328.745 188.856 342.54 196.008 342.54 196.008Z" fill="white"/>
<path opacity="0.2" d="M372.643 197.457C372.643 197.457 401.332 217.374 383.928 221.96C366.523 226.545 353.504 222.101 351.515 215.006C349.526 207.911 354.909 197.719 355.685 198.385C356.46 199.05 362.044 215.292 370.247 213.581C378.45 211.869 372.643 197.457 372.643 197.457Z" fill="white"/>
<path opacity="0.2" d="M379.34 184.974C379.34 184.974 381.605 150.122 394.511 162.667C407.417 175.212 410.326 188.657 405.274 194.021C400.222 199.385 388.713 200.031 388.883 199.023C389.054 198.016 400.087 184.854 394.39 178.709C388.692 172.565 379.34 184.974 379.34 184.974Z" fill="white"/>
<path d="M276.121 246.078C318.447 246.078 352.758 223.432 352.758 195.498C352.758 167.563 318.447 144.917 276.121 144.917C233.796 144.917 199.484 167.563 199.484 195.498C199.484 223.432 233.796 246.078 276.121 246.078Z" fill="#EA565C"/>
<path opacity="0.2" d="M250.065 191.921C250.065 191.921 215.323 195.498 225.541 180.681C235.759 165.865 248.532 160.756 254.663 164.843C260.794 168.93 263.348 180.17 262.327 180.17C261.305 180.17 246.488 171.485 241.379 178.127C236.27 184.768 250.065 191.921 250.065 191.921Z" fill="white"/>
<path opacity="0.2" d="M280.168 193.369C280.168 193.369 308.857 213.287 291.453 217.872C274.048 222.458 261.029 218.014 259.04 210.919C257.051 203.824 262.434 193.632 263.21 194.298C263.985 194.963 269.569 211.205 277.772 209.493C285.975 207.782 280.168 193.369 280.168 193.369Z" fill="white"/>
<path opacity="0.2" d="M286.865 180.887C286.865 180.887 289.13 146.035 302.036 158.58C314.942 171.124 317.851 184.57 312.799 189.934C307.747 195.298 296.238 195.943 296.408 194.936C296.579 193.928 307.612 180.767 301.915 174.622C296.217 168.477 286.865 180.887 286.865 180.887Z" fill="white"/>
<path opacity="0.1" d="M316.004 152.452C332.696 161.73 343.306 175.624 343.306 191.155C343.306 219.089 308.995 241.735 266.669 241.735C252.167 241.735 238.606 239.075 227.043 234.456C240.374 241.866 257.583 246.333 276.377 246.333C318.702 246.333 353.013 223.688 353.013 195.753C353.013 177.39 338.186 161.313 316.004 152.452Z" fill="black"/>
<path opacity="0.1" d="M408.479 156.028C425.171 165.306 435.781 179.2 435.781 194.731C435.781 222.666 401.47 245.311 359.144 245.311C344.642 245.311 331.081 242.652 319.518 238.032C332.849 245.442 350.059 249.91 368.852 249.91C411.177 249.91 445.488 227.264 445.488 199.329C445.488 180.966 430.661 164.89 408.479 156.028Z" fill="black"/>
<path d="M229.547 185.808C229.547 185.808 295.455 115.302 456.903 144.424C584.529 167.445 479.726 207.068 430.214 222.659C415.85 227.181 400.969 229.86 385.929 230.633C330.073 233.509 189.576 236.08 229.547 185.808Z" fill="#714B4F"/>
<path opacity="0.1" d="M430.214 206.821C415.85 211.343 400.969 214.022 385.929 214.794C340.679 217.124 239.888 219.253 224.489 193.25C205.044 235.279 333.199 232.837 385.929 230.122C400.969 229.349 415.85 226.67 430.214 222.148C466.506 210.72 532.499 186.381 514.896 165.132C503.044 181.808 457.954 198.086 430.214 206.821Z" fill="black"/>
<path opacity="0.1" d="M370.303 144.679L388.185 179.932" stroke="black" stroke-width="2" stroke-miterlimit="10"/>
<path opacity="0.1" d="M315.125 157.452L330.452 187.085" stroke="black" stroke-width="2" stroke-miterlimit="10"/>
<path opacity="0.1" d="M402.491 144.679L426.504 179.932" stroke="black" stroke-width="2" stroke-miterlimit="10"/>
<path opacity="0.1" d="M315.125 190.15L476.062 169.714" stroke="black" stroke-width="2" stroke-miterlimit="10"/>
<path opacity="0.1" d="M469.931 151.321L481.171 167.159" stroke="black" stroke-width="2" stroke-miterlimit="10"/>
<path opacity="0.1" d="M283.448 169.714L290.601 184.53" stroke="black" stroke-width="2" stroke-miterlimit="10"/>
<path d="M307.472 121.715C307.472 121.715 454.44 121.05 455.788 119.721C457.137 118.391 488.148 117.686 494.216 126.33C500.283 134.974 502.306 138.963 494.216 140.293C486.126 141.623 219.83 277.926 219.83 277.926C219.83 277.926 204.998 279.256 212.414 264.628C219.83 250 307.472 121.715 307.472 121.715Z" fill="#F6C964"/>
<path d="M369.173 182.511C369.173 188.014 342.639 201.415 309.907 201.415C277.176 201.415 250.642 188.014 250.642 182.511C250.642 177.009 277.176 174.848 309.907 174.848C342.639 174.848 369.173 177.009 369.173 182.511Z" fill="#61AB43"/>
<path d="M309.907 192.219C342.639 192.219 369.173 187.758 369.173 182.256C369.173 176.753 342.639 172.293 309.907 172.293C277.176 172.293 250.642 176.753 250.642 182.256C250.642 187.758 277.176 192.219 309.907 192.219Z" fill="#61AB43"/>
<path d="M440.701 173.315C440.701 178.817 414.167 192.219 381.435 192.219C348.704 192.219 322.169 178.817 322.169 173.315C322.169 167.813 348.704 165.651 381.435 165.651C414.167 165.651 440.701 167.813 440.701 173.315Z" fill="#61AB43"/>
<path d="M381.435 183.022C414.167 183.022 440.701 178.562 440.701 173.059C440.701 167.557 414.167 163.097 381.435 163.097C348.704 163.097 322.169 167.557 322.169 173.059C322.169 178.562 348.704 183.022 381.435 183.022Z" fill="#61AB43"/>
<path d="M512.228 164.118C512.228 169.621 485.694 183.022 452.963 183.022C420.231 183.022 393.697 169.621 393.697 164.118C393.697 158.616 420.231 156.455 452.963 156.455C485.694 156.455 512.228 158.616 512.228 164.118Z" fill="#61AB43"/>
<path d="M452.963 173.826C485.694 173.826 512.228 169.365 512.228 163.863C512.228 158.361 485.694 153.9 452.963 153.9C420.231 153.9 393.697 158.361 393.697 163.863C393.697 169.365 420.231 173.826 452.963 173.826Z" fill="#61AB43"/>
<path d="M234.698 166.949C234.698 166.949 210.323 162.981 222.794 143.141C235.265 123.301 239.46 101.06 244.902 96.0914C250.986 90.5363 376.563 -6.86082 474.394 100.914C484.759 112.469 493.184 125.625 499.343 139.872C500.526 142.566 501.831 144.983 503.106 146.258C507.074 150.226 510.476 161.564 503.106 167.232C495.737 172.901 278.63 195.008 234.698 166.949Z" fill="#3F3D56"/>
<path d="M348.92 84.4707C347.418 85.5153 345.647 86.1057 343.819 86.1713C341.001 86.1713 338.717 85.4099 338.717 84.4707C338.717 83.5315 341.001 82.7701 343.819 82.7701C345.647 82.8358 347.418 83.4261 348.92 84.4707Z" fill="#F2F2F2"/>
<path d="M308.106 73.7004C306.604 74.745 304.833 75.3353 303.005 75.401C300.187 75.401 297.903 74.6396 297.903 73.7004C297.903 72.7612 300.187 71.9998 303.005 71.9998C304.833 72.0655 306.604 72.6558 308.106 73.7004Z" fill="#F2F2F2"/>
<path d="M418.978 89.3951C417.233 89.9435 415.366 89.9782 413.602 89.4949C410.912 88.6537 408.96 87.2451 409.24 86.3487C409.521 85.4523 411.928 85.4076 414.617 86.2489C416.343 86.8575 417.857 87.9497 418.978 89.3951Z" fill="#F2F2F2"/>
<path d="M343.586 60.4852C341.84 61.0337 339.974 61.0683 338.209 60.585C335.52 59.7438 333.567 58.3352 333.848 57.4388C334.128 56.5424 336.536 56.4978 339.225 57.339C340.95 57.9476 342.464 59.0398 343.586 60.4852Z" fill="#F2F2F2"/>
<path d="M425.781 70.6887C424.035 71.2372 422.169 71.2718 420.404 70.7885C417.715 69.9473 415.762 68.5387 416.043 67.6423C416.323 66.7459 418.73 66.7012 421.419 67.5425C423.145 68.1511 424.659 69.2433 425.781 70.6887Z" fill="#F2F2F2"/>
<path d="M409.008 69.1655C407.505 70.2101 405.734 70.8004 403.906 70.8661C401.088 70.8661 398.804 70.1047 398.804 69.1655C398.804 68.2263 401.088 67.4649 403.906 67.4649C405.734 67.5306 407.505 68.1209 409.008 69.1655Z" fill="#F2F2F2"/>
<path d="M360.258 58.962C358.755 60.0066 356.984 60.597 355.156 60.6626C352.338 60.6626 350.054 59.9013 350.054 58.962C350.054 58.0228 352.338 57.2615 355.156 57.2615C356.984 57.3271 358.755 57.9175 360.258 58.962Z" fill="#F2F2F2"/>
<path d="M397.67 58.962C396.168 60.0066 394.397 60.597 392.569 60.6626C389.751 60.6626 387.467 59.9013 387.467 58.962C387.467 58.0228 389.751 57.2615 392.569 57.2615C394.397 57.3271 396.168 57.9175 397.67 58.962Z" fill="#F2F2F2"/>
<path d="M383.499 81.0696C381.997 82.1142 380.226 82.7045 378.397 82.7701C375.579 82.7701 373.295 82.0088 373.295 81.0696C373.295 80.1304 375.579 79.369 378.397 79.369C380.226 79.4346 381.997 80.025 383.499 81.0696Z" fill="#F2F2F2"/>
<path d="M342.279 77.0969C342.705 75.3174 343.633 73.6978 344.954 72.4315C347.056 70.5557 349.268 69.6031 349.893 70.3039C350.518 71.0047 349.321 73.0935 347.218 74.9693C345.81 76.1377 344.096 76.8763 342.279 77.0969Z" fill="#F2F2F2"/>
<path d="M316.771 70.8615C317.196 69.0819 318.125 67.4624 319.445 66.196C321.548 64.3202 323.759 63.3676 324.384 64.0684C325.009 64.7692 323.812 66.858 321.71 68.7339C320.301 69.9022 318.587 70.6408 316.771 70.8615Z" fill="#F2F2F2"/>
<path d="M272.556 101.472C272.981 99.6923 273.909 98.0728 275.23 96.8065C277.333 94.9306 279.544 93.978 280.169 94.6789C280.794 95.3797 279.597 97.4684 277.494 99.3443C276.086 100.513 274.372 101.251 272.556 101.472Z" fill="#F2F2F2"/>
<path d="M370.622 67.4603C371.048 65.6808 371.976 64.0612 373.297 62.7949C375.399 60.919 377.611 59.9665 378.236 60.6673C378.861 61.3681 377.664 63.4568 375.561 65.3327C374.153 66.5011 372.439 67.2396 370.622 67.4603Z" fill="#F2F2F2"/>
<path d="M360.419 87.8673C360.844 86.0877 361.773 84.4681 363.093 83.2018C365.196 81.326 367.407 80.3734 368.032 81.0742C368.658 81.775 367.46 83.8638 365.358 85.7396C363.95 86.908 362.235 87.6466 360.419 87.8673Z" fill="#F2F2F2"/>
<path d="M548.71 310.005C548.71 310.005 540.949 312.334 537.068 316.99C537.068 316.99 530.083 320.095 525.814 319.319C521.545 318.543 513.784 326.304 519.993 328.632C526.202 330.961 564.232 337.17 565.008 335.229C565.785 333.289 565.785 313.498 565.785 313.498L548.71 310.005Z" fill="#575A89"/>
<path d="M609.676 306.673C609.676 306.673 602.426 310.293 599.398 315.544C599.398 315.544 593.046 319.796 588.707 319.76C584.369 319.724 578.047 328.697 584.563 329.931C591.078 331.165 629.61 330.787 630.043 328.742C630.477 326.698 627.096 307.197 627.096 307.197L609.676 306.673Z" fill="#575A89"/>
<path d="M561.322 43.6002C570.966 43.6002 578.785 35.7819 578.785 26.1374C578.785 16.493 570.966 8.67459 561.322 8.67459C551.677 8.67459 543.859 16.493 543.859 26.1374C543.859 35.7819 551.677 43.6002 561.322 43.6002Z" fill="#FFB9B9"/>
<path d="M575.486 29.0479C575.486 29.0479 577.427 42.242 580.919 43.7943C583.349 44.9904 585.575 46.5619 587.516 48.451L577.815 53.1078L558.8 51.9436C558.8 51.9436 560.352 43.4062 557.635 39.1375C554.919 34.8688 575.486 29.0479 575.486 29.0479Z" fill="#FFB9B9"/>
<path d="M611.576 91.526C611.576 91.526 620.501 114.422 611.576 136.541C602.651 158.661 598.77 162.153 598.77 162.153L596.054 133.049L599.177 130.215C599.177 130.215 601.069 121.385 599.531 116.157C597.994 110.929 600.322 94.6305 600.322 94.6305L611.576 91.526Z" fill="#FFB9B9"/>
<path d="M544.829 141.198C544.829 141.198 533.575 166.81 534.74 179.228C535.904 191.646 544.829 244.035 544.829 244.035C544.829 244.035 543.665 311.557 547.158 311.557C550.65 311.557 567.337 317.766 567.337 313.498C567.337 309.229 570.829 206.781 570.829 206.781C570.829 206.781 590.621 251.796 592.561 255.288C594.501 258.781 606.919 313.498 611.188 313.498C615.457 313.498 628.651 309.617 627.487 306.901C626.322 304.184 613.128 243.647 605.755 228.124C598.382 212.601 599.934 154.004 599.934 154.004L587.516 126.84L544.829 141.198Z" fill="#3F3D56"/>
<path d="M556.083 18.1821C556.083 18.1821 545.217 17.406 544.441 14.6896C543.665 11.9731 542.113 9.64473 542.889 9.64473C543.665 9.64473 544.053 7.70442 544.053 7.70442C544.053 7.70442 544.829 7.31636 545.217 7.70442C545.605 8.09249 545.994 4.98799 545.994 4.98799C545.994 4.98799 546.382 3.8238 546.77 4.59993C547.158 5.37606 547.158 4.98799 547.546 3.8238C547.934 2.65961 549.874 1.88349 549.874 1.88349C549.874 1.88349 557.247 2.27155 558.411 0.719306C559.576 -0.83294 572.77 0.331235 575.486 2.27155C578.203 4.21186 590.233 11.197 588.292 17.0179C586.352 22.8389 579.367 35.6449 579.367 37.5853C579.367 39.5256 576.65 39.1375 575.874 37.1972C575.098 35.2569 568.889 32.9285 568.889 31.7643C568.889 30.6001 565.397 19.7344 563.456 20.5105C561.516 21.2866 559.188 27.4956 558.412 26.3315C557.635 25.1673 556.083 18.1821 556.083 18.1821Z" fill="#3F3D56"/>
<path d="M609.636 71.3467C609.636 71.3467 593.725 48.063 589.068 46.8988C584.412 45.7345 573.934 42.6301 573.934 42.6301C573.934 42.6301 563.456 44.1823 560.352 45.7346C557.247 47.2868 545.605 50.0033 545.217 54.66C544.829 59.3168 548.322 103.944 546.382 108.213C544.441 112.481 537.844 153.228 540.949 152.452C544.053 151.676 541.725 141.586 555.307 141.198C568.889 140.81 576.262 132.661 581.307 142.362C586.352 152.064 600.71 159.437 600.71 159.437C601.071 156.308 601.589 153.2 602.263 150.123C603.427 144.691 599.158 131.496 599.158 131.496C599.158 131.496 599.546 100.839 601.098 97.3469C602.651 93.8543 609.636 71.3467 609.636 71.3467Z" fill="white"/>
<path d="M603.815 70.5706L609.636 71.3467C609.636 71.3467 609.248 79.1079 610.8 81.4363C612.352 83.7647 615.069 95.7946 613.516 96.1827C611.964 96.5708 597.994 98.8991 597.994 98.8991L597.218 81.0483L603.815 70.5706Z" fill="white"/>
<path d="M540.949 84.5408C540.949 84.5408 537.068 109.765 535.128 112.869C533.187 115.974 523.486 159.437 523.486 159.437C523.486 159.437 507.532 181.622 515.294 181.234C523.055 180.846 531.247 160.989 531.247 160.989C531.247 160.989 555.307 117.138 555.307 112.481C555.307 107.825 561.128 84.5409 561.128 84.5409L540.949 84.5408Z" fill="#FFB9B9"/>
<path d="M552.203 50.3913L545.217 53.1078C545.217 53.1078 536.292 84.9289 538.232 87.6453C540.173 90.3618 563.456 86.4812 563.844 85.317C564.232 84.1528 559.576 50.3913 552.203 50.3913Z" fill="white"/>
<path d="M61.9429 260.984C61.9429 298.794 85.6627 329.389 114.976 329.389L61.9429 260.984Z" fill="#46455B"/>
<path d="M114.976 329.389C114.976 291.154 141.446 260.215 174.157 260.215L114.976 329.389Z" fill="white"/>
<path d="M81.1577 264.412C81.1577 300.327 96.2834 329.389 114.976 329.389L81.1577 264.412Z" fill="white"/>
<path d="M114.976 329.389C114.976 280.534 145.571 241.001 183.381 241.001L114.976 329.389Z" fill="#46455B"/>
<path d="M103.819 329.871C103.819 329.871 111.34 329.639 113.607 328.025C115.873 326.411 125.176 324.484 125.738 327.073C126.3 329.661 137.041 339.947 128.549 340.015C120.058 340.084 108.82 338.693 106.558 337.315C104.295 335.937 103.819 329.871 103.819 329.871Z" fill="#A8A8A8"/>
<path opacity="0.2" d="M128.701 339.114C120.21 339.183 108.971 337.792 106.709 336.414C104.986 335.364 104.3 331.599 104.07 329.861C103.911 329.868 103.819 329.871 103.819 329.871C103.819 329.871 104.295 335.937 106.558 337.315C108.82 338.693 120.058 340.084 128.549 340.015C131.001 339.996 131.847 339.124 131.801 337.832C131.46 338.612 130.525 339.1 128.701 339.114Z" fill="black"/>
</g>
<defs>
<clipPath id="clip0_2_134">
<rect width="693.858" height="378.924" fill="white"/>
</clipPath>
</defs>
</svg>
